G04 #@! TF.GenerationSoftware,KiCad,Pcbnew,(5.0.0-3-g5ebb6b6)*
G04 #@! TF.CreationDate,2019-04-13T13:39:12-06:00*
G04 #@! TF.ProjectId,VasulkaTranslocationPCB,566173756C6B615472616E736C6F6361,rev?*
G04 #@! TF.SameCoordinates,Original*
G04 #@! TF.FileFunction,Legend,Bot*
G04 #@! TF.FilePolarity,Positive*
%FSLAX46Y46*%
G04 Gerber Fmt 4.6, Leading zero omitted, Abs format (unit mm)*
G04 Created by KiCad (PCBNEW (5.0.0-3-g5ebb6b6)) date Saturday, April 13, 2019 at 01:39:12 PM*
%MOMM*%
%LPD*%
G01*
G04 APERTURE LIST*
%ADD10C,0.300000*%
G04 APERTURE END LIST*
D10*
X233707142Y-147558571D02*
X233421428Y-147558571D01*
X233278571Y-147487142D01*
X233207142Y-147415714D01*
X233064285Y-147201428D01*
X232992857Y-146915714D01*
X232992857Y-146344285D01*
X233064285Y-146201428D01*
X233135714Y-146130000D01*
X233278571Y-146058571D01*
X233564285Y-146058571D01*
X233707142Y-146130000D01*
X233778571Y-146201428D01*
X233850000Y-146344285D01*
X233850000Y-146701428D01*
X233778571Y-146844285D01*
X233707142Y-146915714D01*
X233564285Y-146987142D01*
X233278571Y-146987142D01*
X233135714Y-146915714D01*
X233064285Y-146844285D01*
X232992857Y-146701428D01*
X232350000Y-147415714D02*
X232278571Y-147487142D01*
X232350000Y-147558571D01*
X232421428Y-147487142D01*
X232350000Y-147415714D01*
X232350000Y-147558571D01*
X231350000Y-146058571D02*
X231207142Y-146058571D01*
X231064285Y-146130000D01*
X230992857Y-146201428D01*
X230921428Y-146344285D01*
X230850000Y-146630000D01*
X230850000Y-146987142D01*
X230921428Y-147272857D01*
X230992857Y-147415714D01*
X231064285Y-147487142D01*
X231207142Y-147558571D01*
X231350000Y-147558571D01*
X231492857Y-147487142D01*
X231564285Y-147415714D01*
X231635714Y-147272857D01*
X231707142Y-146987142D01*
X231707142Y-146630000D01*
X231635714Y-146344285D01*
X231564285Y-146201428D01*
X231492857Y-146130000D01*
X231350000Y-146058571D01*
X229921428Y-146058571D02*
X229778571Y-146058571D01*
X229635714Y-146130000D01*
X229564285Y-146201428D01*
X229492857Y-146344285D01*
X229421428Y-146630000D01*
X229421428Y-146987142D01*
X229492857Y-147272857D01*
X229564285Y-147415714D01*
X229635714Y-147487142D01*
X229778571Y-147558571D01*
X229921428Y-147558571D01*
X230064285Y-147487142D01*
X230135714Y-147415714D01*
X230207142Y-147272857D01*
X230278571Y-146987142D01*
X230278571Y-146630000D01*
X230207142Y-146344285D01*
X230135714Y-146201428D01*
X230064285Y-146130000D01*
X229921428Y-146058571D01*
X228492857Y-146058571D02*
X228350000Y-146058571D01*
X228207142Y-146130000D01*
X228135714Y-146201428D01*
X228064285Y-146344285D01*
X227992857Y-146630000D01*
X227992857Y-146987142D01*
X228064285Y-147272857D01*
X228135714Y-147415714D01*
X228207142Y-147487142D01*
X228350000Y-147558571D01*
X228492857Y-147558571D01*
X228635714Y-147487142D01*
X228707142Y-147415714D01*
X228778571Y-147272857D01*
X228850000Y-146987142D01*
X228850000Y-146630000D01*
X228778571Y-146344285D01*
X228707142Y-146201428D01*
X228635714Y-146130000D01*
X228492857Y-146058571D01*
X227064285Y-146058571D02*
X226921428Y-146058571D01*
X226778571Y-146130000D01*
X226707142Y-146201428D01*
X226635714Y-146344285D01*
X226564285Y-146630000D01*
X226564285Y-146987142D01*
X226635714Y-147272857D01*
X226707142Y-147415714D01*
X226778571Y-147487142D01*
X226921428Y-147558571D01*
X227064285Y-147558571D01*
X227207142Y-147487142D01*
X227278571Y-147415714D01*
X227350000Y-147272857D01*
X227421428Y-146987142D01*
X227421428Y-146630000D01*
X227350000Y-146344285D01*
X227278571Y-146201428D01*
X227207142Y-146130000D01*
X227064285Y-146058571D01*
X224778571Y-147558571D02*
X224778571Y-146558571D01*
X224778571Y-146058571D02*
X224850000Y-146130000D01*
X224778571Y-146201428D01*
X224707142Y-146130000D01*
X224778571Y-146058571D01*
X224778571Y-146201428D01*
X224064285Y-146558571D02*
X224064285Y-147558571D01*
X224064285Y-146701428D02*
X223992857Y-146630000D01*
X223850000Y-146558571D01*
X223635714Y-146558571D01*
X223492857Y-146630000D01*
X223421428Y-146772857D01*
X223421428Y-147558571D01*
X114300000Y-144780000D02*
X342900000Y-144780000D01*
X114300000Y-114300000D02*
X114300000Y-145366421D01*
X342900000Y-114300000D02*
X342900000Y-145366421D01*
X342900000Y-144780000D02*
X341773496Y-145366421D01*
X342900000Y-144780000D02*
X341773496Y-144193579D01*
X114300000Y-144780000D02*
X115426504Y-145366421D01*
X114300000Y-144780000D02*
X115426504Y-144193579D01*
X316078571Y-267942857D02*
X316078571Y-267085714D01*
X316078571Y-267514285D02*
X314578571Y-267514285D01*
X314792857Y-267371428D01*
X314935714Y-267228571D01*
X315007142Y-267085714D01*
X314721428Y-268514285D02*
X314650000Y-268585714D01*
X314578571Y-268728571D01*
X314578571Y-269085714D01*
X314650000Y-269228571D01*
X314721428Y-269300000D01*
X314864285Y-269371428D01*
X315007142Y-269371428D01*
X315221428Y-269300000D01*
X316078571Y-268442857D01*
X316078571Y-269371428D01*
X315935714Y-270014285D02*
X316007142Y-270085714D01*
X316078571Y-270014285D01*
X316007142Y-269942857D01*
X315935714Y-270014285D01*
X316078571Y-270014285D01*
X314578571Y-271442857D02*
X314578571Y-270728571D01*
X315292857Y-270657142D01*
X315221428Y-270728571D01*
X315150000Y-270871428D01*
X315150000Y-271228571D01*
X315221428Y-271371428D01*
X315292857Y-271442857D01*
X315435714Y-271514285D01*
X315792857Y-271514285D01*
X315935714Y-271442857D01*
X316007142Y-271371428D01*
X316078571Y-271228571D01*
X316078571Y-270871428D01*
X316007142Y-270728571D01*
X315935714Y-270657142D01*
X314578571Y-272442857D02*
X314578571Y-272585714D01*
X314650000Y-272728571D01*
X314721428Y-272800000D01*
X314864285Y-272871428D01*
X315150000Y-272942857D01*
X315507142Y-272942857D01*
X315792857Y-272871428D01*
X315935714Y-272800000D01*
X316007142Y-272728571D01*
X316078571Y-272585714D01*
X316078571Y-272442857D01*
X316007142Y-272300000D01*
X315935714Y-272228571D01*
X315792857Y-272157142D01*
X315507142Y-272085714D01*
X315150000Y-272085714D01*
X314864285Y-272157142D01*
X314721428Y-272228571D01*
X314650000Y-272300000D01*
X314578571Y-272442857D01*
X314578571Y-273871428D02*
X314578571Y-274014285D01*
X314650000Y-274157142D01*
X314721428Y-274228571D01*
X314864285Y-274300000D01*
X315150000Y-274371428D01*
X315507142Y-274371428D01*
X315792857Y-274300000D01*
X315935714Y-274228571D01*
X316007142Y-274157142D01*
X316078571Y-274014285D01*
X316078571Y-273871428D01*
X316007142Y-273728571D01*
X315935714Y-273657142D01*
X315792857Y-273585714D01*
X315507142Y-273514285D01*
X315150000Y-273514285D01*
X314864285Y-273585714D01*
X314721428Y-273657142D01*
X314650000Y-273728571D01*
X314578571Y-273871428D01*
X314578571Y-275300000D02*
X314578571Y-275442857D01*
X314650000Y-275585714D01*
X314721428Y-275657142D01*
X314864285Y-275728571D01*
X315150000Y-275800000D01*
X315507142Y-275800000D01*
X315792857Y-275728571D01*
X315935714Y-275657142D01*
X316007142Y-275585714D01*
X316078571Y-275442857D01*
X316078571Y-275300000D01*
X316007142Y-275157142D01*
X315935714Y-275085714D01*
X315792857Y-275014285D01*
X315507142Y-274942857D01*
X315150000Y-274942857D01*
X314864285Y-275014285D01*
X314721428Y-275085714D01*
X314650000Y-275157142D01*
X314578571Y-275300000D01*
X316078571Y-277585714D02*
X315078571Y-277585714D01*
X314578571Y-277585714D02*
X314650000Y-277514285D01*
X314721428Y-277585714D01*
X314650000Y-277657142D01*
X314578571Y-277585714D01*
X314721428Y-277585714D01*
X315078571Y-278300000D02*
X316078571Y-278300000D01*
X315221428Y-278300000D02*
X315150000Y-278371428D01*
X315078571Y-278514285D01*
X315078571Y-278728571D01*
X315150000Y-278871428D01*
X315292857Y-278942857D01*
X316078571Y-278942857D01*
X317500000Y-431800000D02*
X317500000Y-114300000D01*
X342900000Y-431800000D02*
X316913579Y-431800000D01*
X342900000Y-114300000D02*
X316913579Y-114300000D01*
X317500000Y-114300000D02*
X318086421Y-115426504D01*
X317500000Y-114300000D02*
X316913579Y-115426504D01*
X317500000Y-431800000D02*
X318086421Y-430673496D01*
X317500000Y-431800000D02*
X316913579Y-430673496D01*
M02*
