M48
;DRILL file {KiCad (5.0.0-3-g5ebb6b6)} date Saturday, April 13, 2019 at 01:39:26 PM
;FORMAT={-:-/ absolute / metric / decimal}
FMAT,2
METRIC,TZ
T1C0.400
T2C0.600
T3C0.750
T4C0.800
T5C0.900
T6C1.000
T7C1.100
T8C1.270
%
G90
G05
M71
T1
X210.185Y-236.728
X217.868Y-279.337
X220.345Y-279.717
X223.456Y-279.59
X226.631Y-280.352
X255.587Y-231.457
X256.54Y-232.981
X258.127Y-235.077
X260.096Y-227.076
X263.842Y-198.501
X264.16Y-245.999
X267.716Y-227.203
X271.462Y-227.139
X272.351Y-215.392
X274.109Y-219.519
T2
X149.479Y-205.93
X150.749Y-205.93
X152.019Y-205.93
X280.352Y-179.07
X281.623Y-179.07
X282.892Y-179.07
X255.206Y-184.468
X256.476Y-184.468
X257.746Y-184.468
X178.435Y-151.255
X179.705Y-151.255
X180.975Y-151.255
X278.765Y-149.288
X280.035Y-149.288
X281.305Y-149.288
X205.803Y-237.109
X207.073Y-237.109
X208.343Y-237.109
X177.673Y-180.403
X178.943Y-180.403
X180.213Y-180.403
X203.962Y-265.811
X205.232Y-265.811
X206.502Y-265.811
X177.482Y-209.74
X178.752Y-209.74
X180.022Y-209.74
X177.419Y-238.76
X178.689Y-238.76
X179.959Y-238.76
X281.559Y-235.204
X282.829Y-235.204
X284.099Y-235.204
X206.439Y-178.308
X207.708Y-178.308
X208.978Y-178.308
X205.994Y-206.058
X207.264Y-206.058
X208.534Y-206.058
X150.304Y-119.825
X151.575Y-119.825
X152.844Y-119.825
X149.034Y-148.336
X150.304Y-148.336
X151.575Y-148.336
X149.288Y-176.847
X150.558Y-176.847
X151.828Y-176.847
X281.114Y-207.264
X282.385Y-207.264
X283.654Y-207.264
T3
X158.268Y-362.829
X172.852Y-175.539
X176.576Y-182.789
X217.409Y-268.803
T4
X167.703Y-366.776
X167.703Y-376.936
X153.289Y-211.01
X153.289Y-221.171
X177.419Y-229.87
X185.039Y-229.87
X180.086Y-321.881
X180.086Y-329.501
X152.844Y-153.416
X152.844Y-163.576
X131.572Y-422.656
X131.572Y-432.816
X291.338Y-381.254
X291.338Y-391.414
X271.462Y-384.429
X271.462Y-392.049
X132.715Y-351.028
X132.715Y-361.188
X146.621Y-318.071
X146.621Y-325.691
X280.352Y-162.56
X280.352Y-172.72
X290.449Y-219.964
X290.449Y-230.124
X205.994Y-198.438
X213.614Y-198.438
X171.323Y-401.637
X178.943Y-401.637
X177.165Y-156.335
X177.165Y-166.495
X206.439Y-169.418
X214.058Y-169.418
X209.613Y-242.189
X209.613Y-252.349
X136.652Y-420.116
X136.652Y-422.656
X144.272Y-420.116
X144.272Y-422.656
X135.191Y-319.341
X135.191Y-329.501
X301.435Y-408.623
X301.435Y-416.243
X172.656Y-305.689
X172.656Y-308.229
X180.276Y-305.689
X180.276Y-308.229
X260.032Y-385.699
X260.032Y-395.859
X136.715Y-401.51
X144.335Y-401.51
X250.126Y-193.357
X257.746Y-193.357
X290.005Y-192.024
X290.005Y-202.184
X167.513Y-381.317
X167.513Y-391.477
X182.245Y-156.335
X182.245Y-166.495
X295.529Y-363.22
X295.529Y-365.76
X303.149Y-363.22
X303.149Y-365.76
X142.939Y-167.957
X142.939Y-175.577
X145.478Y-167.957
X145.478Y-175.577
X172.085Y-142.365
X172.085Y-149.986
X174.625Y-142.365
X174.625Y-149.986
X202.692Y-270.891
X202.692Y-281.051
X132.905Y-379.921
X132.905Y-390.08
X264.096Y-169.227
X264.096Y-179.387
X291.719Y-353.06
X291.719Y-363.22
X260.921Y-314.325
X260.921Y-324.485
X266.89Y-297.307
X274.51Y-297.307
X264.033Y-367.094
X264.033Y-369.633
X271.653Y-367.094
X271.653Y-369.633
X276.542Y-187.96
X284.162Y-187.96
X176.403Y-185.483
X176.403Y-195.643
X168.656Y-265.875
X168.656Y-276.034
X136.525Y-372.618
X144.145Y-372.618
X136.652Y-430.276
X144.272Y-430.276
X276.034Y-216.154
X283.654Y-216.154
X209.804Y-212.407
X209.804Y-222.567
X149.034Y-139.446
X156.654Y-139.446
X264.604Y-350.52
X272.224Y-350.52
X149.034Y-124.904
X149.034Y-135.064
X260.794Y-341.63
X260.794Y-351.79
X261.81Y-288.417
X261.81Y-298.577
X290.512Y-162.56
X290.512Y-172.72
X142.939Y-181.927
X142.939Y-192.087
X181.483Y-185.483
X181.483Y-195.643
X171.323Y-391.477
X171.323Y-394.017
X178.943Y-391.477
X178.943Y-394.017
X172.656Y-315.849
X180.276Y-315.849
X266.001Y-311.785
X266.001Y-314.325
X273.621Y-311.785
X273.621Y-314.325
X204.534Y-242.189
X204.534Y-252.349
X271.653Y-355.663
X271.653Y-363.284
X171.513Y-374.396
X179.133Y-374.396
X168.656Y-337.121
X168.656Y-347.281
X154.114Y-124.904
X154.114Y-135.064
X266.001Y-323.215
X273.621Y-323.215
X171.132Y-200.85
X171.132Y-208.47
X173.672Y-200.85
X173.672Y-208.47
X149.479Y-197.04
X157.099Y-197.04
X176.213Y-214.82
X176.213Y-224.98
X200.088Y-169.418
X200.088Y-177.038
X202.629Y-169.418
X202.629Y-177.038
X168.846Y-308.229
X168.846Y-318.389
X136.525Y-361.188
X136.525Y-363.728
X144.145Y-361.188
X144.145Y-363.728
X199.453Y-228.219
X199.453Y-235.839
X201.993Y-228.219
X201.993Y-235.839
X287.909Y-236.474
X287.909Y-244.094
X290.449Y-236.474
X290.449Y-244.094
X287.655Y-134.048
X287.655Y-144.208
X287.464Y-208.534
X287.464Y-216.154
X290.005Y-208.534
X290.005Y-216.154
X285.115Y-150.558
X285.115Y-158.178
X287.655Y-150.558
X287.655Y-158.178
X260.223Y-356.933
X260.223Y-367.094
X290.005Y-422.592
X290.005Y-432.752
X207.772Y-270.891
X207.772Y-281.051
X199.644Y-212.407
X199.644Y-222.567
X293.815Y-420.053
X293.815Y-422.592
X301.435Y-420.053
X301.435Y-422.592
X303.149Y-351.79
X303.149Y-359.41
X273.621Y-300.355
X273.621Y-307.975
X179.133Y-351.536
X179.133Y-359.156
X143.129Y-211.01
X143.129Y-221.171
X181.292Y-214.82
X181.292Y-224.98
X264.033Y-379.793
X271.653Y-379.793
X172.466Y-346.012
X180.086Y-346.012
X131.572Y-409.956
X131.572Y-420.116
X142.684Y-153.416
X142.684Y-163.576
X144.145Y-348.488
X144.145Y-356.108
X295.148Y-402.844
X302.768Y-402.844
X291.338Y-393.954
X291.338Y-404.114
X263.842Y-407.289
X271.462Y-407.289
X139.001Y-340.931
X146.621Y-340.931
X285.369Y-219.964
X285.369Y-230.124
X210.248Y-183.388
X210.248Y-193.548
X167.703Y-354.076
X167.703Y-364.236
X178.435Y-142.365
X186.055Y-142.365
X171.069Y-243.84
X171.069Y-254.
X199.453Y-242.189
X199.453Y-252.349
X149.288Y-167.957
X156.909Y-167.957
X181.229Y-243.84
X181.229Y-254.
X172.466Y-287.464
X180.086Y-287.464
X135.191Y-332.041
X135.191Y-342.202
X293.815Y-431.482
X301.435Y-431.482
X260.032Y-398.399
X260.032Y-408.559
X132.715Y-363.728
X132.715Y-373.888
X273.685Y-158.178
X281.305Y-158.178
X280.289Y-219.964
X280.289Y-230.124
X178.943Y-380.047
X178.943Y-387.667
X172.466Y-276.034
X172.466Y-278.575
X180.086Y-276.034
X180.086Y-278.575
X172.085Y-156.335
X172.085Y-166.495
X205.168Y-183.388
X205.168Y-193.548
X203.962Y-256.921
X211.582Y-256.921
X143.954Y-110.934
X143.954Y-118.554
X146.494Y-110.934
X146.494Y-118.554
X144.335Y-378.65
X144.335Y-386.27
X259.017Y-169.227
X259.017Y-179.387
X142.684Y-139.446
X142.684Y-147.066
X145.225Y-139.446
X145.225Y-147.066
X143.129Y-197.04
X143.129Y-204.66
X145.669Y-197.04
X145.669Y-204.66
X171.323Y-171.513
X171.323Y-179.133
X173.863Y-171.513
X173.863Y-179.133
X167.513Y-394.017
X167.513Y-404.178
X279.844Y-192.024
X279.844Y-202.184
X177.673Y-171.513
X185.293Y-171.513
X180.086Y-263.334
X180.086Y-270.954
X264.604Y-339.09
X264.604Y-341.63
X272.224Y-339.09
X272.224Y-341.63
X263.842Y-395.859
X263.842Y-398.399
X271.462Y-395.859
X271.462Y-398.399
X132.905Y-392.62
X132.905Y-402.78
X253.936Y-169.227
X253.936Y-179.387
X291.719Y-365.76
X291.719Y-375.92
X260.921Y-301.625
X260.921Y-311.785
X150.304Y-110.934
X157.924Y-110.934
X274.51Y-274.447
X274.51Y-282.067
X285.433Y-162.56
X285.433Y-172.72
X148.018Y-181.927
X148.018Y-192.087
X171.323Y-185.483
X171.323Y-195.643
X260.794Y-328.93
X260.794Y-339.09
X168.656Y-278.575
X168.656Y-288.734
X171.513Y-364.236
X171.513Y-366.776
X179.133Y-364.236
X179.133Y-366.776
X144.272Y-407.416
X144.272Y-415.036
X284.924Y-192.024
X284.924Y-202.184
X205.803Y-228.219
X213.423Y-228.219
X147.764Y-153.416
X147.764Y-163.576
X266.89Y-285.877
X266.89Y-288.417
X274.51Y-285.877
X274.51Y-288.417
X168.656Y-324.421
X168.656Y-334.582
X272.224Y-327.66
X272.224Y-335.28
X143.954Y-124.904
X143.954Y-135.064
X261.81Y-275.717
X261.81Y-285.877
X153.099Y-181.927
X153.099Y-192.087
X177.482Y-200.85
X185.102Y-200.85
X180.276Y-292.989
X180.276Y-300.609
X282.575Y-134.048
X282.575Y-144.208
X171.069Y-229.87
X171.069Y-237.49
X173.609Y-229.87
X173.609Y-237.49
X197.612Y-270.891
X197.612Y-281.051
X204.724Y-212.407
X204.724Y-222.567
X139.001Y-329.501
X139.001Y-332.041
X146.621Y-329.501
X146.621Y-332.041
X199.644Y-198.438
X199.644Y-206.058
X202.184Y-198.438
X202.184Y-206.058
X136.715Y-391.35
X136.715Y-393.89
X144.335Y-391.35
X144.335Y-393.89
X197.612Y-256.921
X197.612Y-264.541
X200.152Y-256.921
X200.152Y-264.541
X295.529Y-374.65
X303.149Y-374.65
X261.556Y-185.737
X261.556Y-193.357
X264.096Y-185.737
X264.096Y-193.357
X176.149Y-243.84
X176.149Y-254.
X287.972Y-180.34
X287.972Y-187.96
X290.512Y-180.34
X290.512Y-187.96
X148.209Y-211.01
X148.209Y-221.171
X171.132Y-214.82
X171.132Y-224.98
X295.148Y-391.414
X295.148Y-393.954
X302.768Y-391.414
X302.768Y-393.954
X168.846Y-295.529
X168.846Y-305.689
X277.495Y-134.048
X277.495Y-144.208
X302.768Y-379.984
X302.768Y-387.604
X260.223Y-369.633
X260.223Y-379.793
X290.005Y-409.892
X290.005Y-420.053
X276.479Y-244.094
X284.099Y-244.094
X172.466Y-334.582
X172.466Y-337.121
X180.086Y-334.582
X180.086Y-337.121
X200.088Y-183.388
X200.088Y-193.548
T5
X137.922Y-407.416
X137.922Y-409.956
X175.006Y-321.881
X175.006Y-324.421
X174.053Y-351.536
X174.053Y-354.076
X141.541Y-318.071
X141.541Y-320.611
X268.161Y-274.447
X268.161Y-276.987
X265.303Y-355.663
X265.303Y-358.203
X267.272Y-300.355
X267.272Y-302.895
X295.084Y-408.623
X295.084Y-411.162
X137.986Y-378.65
X137.986Y-381.19
X173.927Y-292.989
X173.927Y-295.529
X173.736Y-263.334
X173.736Y-265.875
X296.418Y-379.984
X296.418Y-382.524
X173.863Y-380.047
X173.863Y-382.587
X265.875Y-327.66
X265.875Y-330.2
X296.799Y-351.79
X296.799Y-354.33
X139.065Y-348.488
X139.065Y-351.028
X265.113Y-384.429
X265.113Y-386.969
T6
X114.49Y-409.257
X165.925Y-332.867
X169.608Y-198.247
X181.673Y-211.899
X208.724Y-266.827
X212.915Y-274.193
X214.566Y-254.127
X253.873Y-364.553
X253.873Y-367.094
X253.873Y-369.633
X213.423Y-233.299
X213.423Y-235.839
X213.423Y-238.379
X254.571Y-309.245
X254.571Y-311.785
X254.571Y-314.325
X283.654Y-417.512
X283.654Y-420.053
X283.654Y-422.592
X285.369Y-360.68
X285.369Y-363.22
X285.369Y-365.76
X161.163Y-390.207
X161.163Y-392.748
X161.163Y-395.287
X156.654Y-144.526
X156.654Y-147.066
X156.654Y-149.606
X161.353Y-362.966
X161.353Y-365.506
X161.353Y-368.046
X248.856Y-183.197
X248.856Y-185.737
X248.856Y-188.278
X156.909Y-173.037
X156.909Y-175.577
X156.909Y-178.117
X162.496Y-305.689
X162.496Y-308.229
X162.496Y-310.769
X125.222Y-420.116
X125.222Y-422.656
X125.222Y-425.196
X157.099Y-202.12
X157.099Y-204.66
X157.099Y-207.2
X274.002Y-176.53
X274.002Y-179.07
X274.002Y-181.61
X186.055Y-147.445
X186.055Y-149.986
X186.055Y-152.525
X253.682Y-393.319
X253.682Y-395.859
X253.682Y-398.399
X272.415Y-146.749
X272.415Y-149.288
X272.415Y-151.828
X128.841Y-329.501
X128.841Y-332.041
X128.841Y-334.582
X254.444Y-336.55
X254.444Y-339.09
X254.444Y-341.63
X185.293Y-176.594
X185.293Y-179.133
X185.293Y-181.673
X126.555Y-390.08
X126.555Y-392.62
X126.555Y-395.16
X255.46Y-283.337
X255.46Y-285.877
X255.46Y-288.417
X284.988Y-388.874
X284.988Y-391.414
X284.988Y-393.954
X211.582Y-262.001
X211.582Y-264.541
X211.582Y-267.081
X185.102Y-205.93
X185.102Y-208.47
X185.102Y-211.01
X157.924Y-115.951
X157.924Y-118.491
X157.924Y-121.031
X185.039Y-234.95
X185.039Y-237.49
X185.039Y-240.03
X275.209Y-233.934
X275.209Y-236.474
X275.209Y-239.014
X162.306Y-334.582
X162.306Y-337.121
X162.306Y-339.661
X162.306Y-274.764
X162.306Y-277.304
X162.306Y-279.844
X214.058Y-174.498
X214.058Y-177.038
X214.058Y-179.578
X274.764Y-205.994
X274.764Y-208.534
X274.764Y-211.074
X213.614Y-203.517
X213.614Y-206.058
X213.614Y-208.597
X126.365Y-361.188
X126.365Y-363.728
X126.365Y-366.268
T7
X227.076Y-215.392
X227.076Y-217.932
X227.076Y-220.472
X227.076Y-223.012
X227.076Y-225.552
X227.076Y-228.092
X227.076Y-230.632
X227.076Y-233.172
X227.076Y-235.712
X227.076Y-238.252
X227.076Y-240.792
X227.076Y-243.332
X227.076Y-245.872
X227.076Y-248.412
X227.076Y-250.952
X227.076Y-253.492
X227.076Y-256.032
X227.076Y-258.572
X227.076Y-261.112
X227.076Y-263.652
X227.076Y-266.192
X227.076Y-268.732
X227.076Y-271.272
X227.076Y-273.812
X229.616Y-261.112
X230.076Y-221.742
X230.076Y-224.282
X230.076Y-226.822
X230.076Y-229.362
X230.076Y-231.902
X232.156Y-261.112
X234.696Y-230.632
X234.696Y-233.172
X234.696Y-235.712
X234.696Y-238.252
X234.696Y-253.492
X234.696Y-256.032
X234.696Y-258.572
X234.696Y-261.112
X234.696Y-263.652
X234.696Y-266.192
X234.696Y-268.732
X234.696Y-271.272
X234.696Y-273.812
X237.236Y-230.632
X237.236Y-233.172
X237.236Y-235.712
X237.236Y-238.252
X237.236Y-253.492
X237.236Y-256.032
X237.236Y-258.572
X237.236Y-261.112
X237.236Y-263.652
X237.236Y-266.192
X237.236Y-268.732
X237.236Y-271.272
X237.236Y-273.812
X239.776Y-217.932
X239.776Y-223.012
X239.776Y-225.552
X239.776Y-228.092
X239.776Y-261.112
X242.316Y-215.392
X242.316Y-217.932
X242.316Y-220.472
X242.316Y-223.012
X242.316Y-225.552
X242.316Y-228.092
X242.316Y-230.632
X242.316Y-233.172
X242.316Y-235.712
X242.316Y-238.252
X242.316Y-240.792
X242.316Y-243.332
X242.316Y-245.872
X242.316Y-248.412
X242.316Y-250.952
X242.316Y-253.492
X242.316Y-256.032
X242.316Y-258.572
X242.316Y-261.112
X242.316Y-263.652
X242.316Y-266.192
X242.316Y-268.732
X242.316Y-271.272
X242.316Y-273.812
T8
X196.732Y-425.642
X196.832Y-420.341
X200.932Y-425.642
X201.032Y-420.341
X205.132Y-425.642
X205.232Y-420.341
X209.332Y-425.642
X209.432Y-420.341
X213.532Y-425.642
X213.632Y-420.341
X217.732Y-425.642
X217.832Y-420.341
X221.932Y-425.642
X222.032Y-420.341
X226.132Y-425.642
X226.232Y-420.341
X230.332Y-425.642
X230.432Y-420.341
X234.532Y-425.642
X234.632Y-420.341
X238.732Y-425.642
X238.832Y-420.341
X242.932Y-425.642
X243.032Y-420.341
X211.12Y-125.06
X211.22Y-119.76
X215.32Y-125.06
X215.42Y-119.76
X219.52Y-125.06
X219.62Y-119.76
X223.72Y-125.06
X223.82Y-119.76
X227.92Y-125.06
X228.02Y-119.76
X232.12Y-125.06
X232.22Y-119.76
X236.32Y-125.06
X236.42Y-119.76
X240.52Y-125.06
X240.62Y-119.76
X244.72Y-125.06
X244.82Y-119.76
X248.92Y-125.06
X249.02Y-119.76
X253.12Y-125.06
X253.22Y-119.76
X257.32Y-125.06
X257.42Y-119.76
T6
X112.11Y-256.81G85X112.11Y-258.81
G05
X114.11Y-262.51G85X116.11Y-262.51
G05
X118.11Y-256.81G85X118.11Y-258.81
G05
T0
M30
