M48
; DRILL file {KiCad (5.1.5-0-10_14)} date Friday, March 06, 2020 at 09:21:39 AM
; FORMAT={-:-/ absolute / metric / decimal}
; #@! TF.CreationDate,2020-03-06T09:21:39-07:00
; #@! TF.GenerationSoftware,Kicad,Pcbnew,(5.1.5-0-10_14)
; #@! TF.FileFunction,Plated,1,2,PTH
FMAT,2
METRIC
T1C0.400
T2C0.600
T3C0.800
T4C0.900
T5C1.000
T6C1.100
T7C1.778
%
G90
G05
T1
X202.248Y-243.967
X203.644Y-244.03
X205.105Y-244.157
X219.71Y-259.397
X220.98Y-261.874
X221.805Y-227.203
X221.996Y-264.287
X228.028Y-270.256
X229.362Y-267.779
T2
X171.386Y-398.082
X172.656Y-398.082
X173.927Y-398.082
X302.07Y-344.805
X303.339Y-344.805
X304.609Y-344.805
X118.491Y-338.074
X119.761Y-338.074
X121.031Y-338.074
X226.187Y-374.269
X227.457Y-374.269
X228.727Y-374.269
X151.257Y-406.082
X152.527Y-406.082
X153.797Y-406.082
X189.293Y-389.7
X190.564Y-389.7
X191.833Y-389.7
X244.792Y-367.601
X246.062Y-367.601
X247.332Y-367.601
X320.231Y-336.55
X321.5Y-336.55
X322.77Y-336.55
X156.591Y-325.247
X157.861Y-325.247
X159.131Y-325.247
X281.559Y-352.044
X282.829Y-352.044
X284.099Y-352.044
X207.581Y-382.079
X208.851Y-382.079
X210.121Y-382.079
X132.779Y-413.829
X134.048Y-413.829
X135.319Y-413.829
X174.752Y-317.754
X176.022Y-317.754
X177.292Y-317.754
X339.661Y-328.422
X340.931Y-328.422
X342.202Y-328.422
X138.811Y-333.121
X140.081Y-333.121
X141.351Y-333.121
X263.589Y-359.791
X264.858Y-359.791
X266.128Y-359.791
X193.04Y-310.642
X194.31Y-310.642
X195.58Y-310.642
T3
X283.654Y-170.117
X283.654Y-180.276
X162.56Y-211.836
X162.56Y-219.456
X135.953Y-233.172
X135.953Y-243.332
X283.274Y-157.226
X283.274Y-167.386
X341.185Y-290.576
X341.185Y-298.196
X264.033Y-160.02
X264.033Y-162.56
X271.653Y-160.02
X271.653Y-162.56
X154.686Y-310.007
X154.686Y-320.167
X302.704Y-316.611
X302.704Y-326.771
X230.251Y-359.283
X230.251Y-369.443
X130.238Y-398.716
X130.238Y-408.876
X248.602Y-352.361
X248.602Y-362.522
X176.022Y-280.162
X176.022Y-287.782
X181.61Y-216.218
X181.61Y-223.837
X253.428Y-261.81
X253.428Y-271.971
X282.702Y-314.325
X282.702Y-321.945
X252.666Y-173.037
X252.666Y-180.657
X234.379Y-192.595
X234.379Y-200.215
X227.203Y-336.677
X227.203Y-344.297
X321.373Y-309.372
X321.373Y-319.532
X192.722Y-206.311
X192.722Y-216.471
X188.023Y-338.772
X188.023Y-341.312
X195.643Y-338.772
X195.643Y-341.312
X243.522Y-316.801
X243.522Y-319.341
X251.142Y-316.801
X251.142Y-319.341
X133.54Y-375.856
X133.54Y-383.476
X138.811Y-295.021
X138.811Y-302.641
X119.761Y-300.99
X119.761Y-308.61
X143.637Y-234.315
X143.637Y-241.935
X267.399Y-344.551
X267.399Y-354.711
X243.522Y-325.056
X251.142Y-325.056
X116.713Y-323.342
X116.713Y-333.502
X187.388Y-374.459
X187.388Y-384.619
X193.611Y-374.587
X193.611Y-384.746
X152.527Y-378.397
X152.527Y-388.556
X245.427Y-329.501
X245.427Y-337.121
X155.448Y-210.883
X155.448Y-221.043
X235.331Y-271.716
X235.331Y-281.876
X194.945Y-272.542
X194.945Y-280.162
X135.953Y-220.218
X135.953Y-230.378
X199.707Y-207.962
X199.707Y-215.582
X173.736Y-197.421
X173.736Y-199.962
X181.356Y-197.421
X181.356Y-199.962
X245.491Y-171.894
X245.491Y-182.054
X172.022Y-359.854
X172.022Y-367.474
X234.379Y-180.403
X234.379Y-188.023
X318.071Y-321.564
X318.071Y-331.724
X262.318Y-309.499
X262.318Y-312.039
X269.938Y-309.499
X269.938Y-312.039
X188.278Y-347.409
X195.897Y-347.409
X321.5Y-298.958
X321.5Y-306.578
X181.991Y-204.025
X181.991Y-211.645
X192.595Y-187.897
X192.595Y-190.436
X200.215Y-187.897
X200.215Y-190.436
X310.959Y-163.766
X310.959Y-171.386
X309.435Y-227.965
X309.435Y-238.125
X172.72Y-302.768
X172.72Y-312.928
X119.761Y-311.15
X119.761Y-321.31
X227.33Y-346.71
X227.33Y-356.87
X172.022Y-370.142
X172.022Y-380.301
X149.479Y-390.842
X149.479Y-401.002
X235.204Y-259.08
X235.204Y-269.24
X281.305Y-310.261
X288.925Y-310.261
X155.448Y-223.393
X155.448Y-233.553
X299.275Y-235.522
X299.275Y-243.141
X125.031Y-243.268
X125.031Y-250.888
X124.65Y-230.822
X124.65Y-238.442
X227.266Y-191.96
X227.266Y-202.12
X209.55Y-181.165
X209.55Y-183.706
X217.17Y-181.165
X217.17Y-183.706
X154.686Y-274.447
X154.686Y-276.987
X162.306Y-274.447
X162.306Y-276.987
X190.564Y-351.599
X190.564Y-359.219
X245.618Y-184.531
X245.618Y-194.691
X316.548Y-229.489
X316.548Y-237.109
X154.686Y-282.702
X162.306Y-282.702
X169.481Y-347.027
X169.481Y-349.567
X177.101Y-347.027
X177.101Y-349.567
X225.298Y-332.486
X232.918Y-332.486
X157.861Y-287.147
X157.861Y-294.767
X316.548Y-241.109
X316.548Y-248.73
X323.215Y-141.415
X323.215Y-151.575
X330.454Y-154.686
X330.454Y-162.306
X292.163Y-234.696
X292.163Y-244.856
X176.022Y-290.322
X176.022Y-300.482
X138.811Y-305.181
X138.811Y-315.341
X208.978Y-354.774
X208.978Y-364.934
X155.575Y-390.715
X155.575Y-400.875
X245.427Y-339.661
X245.427Y-349.821
X206.692Y-340.042
X214.312Y-340.042
X341.185Y-300.736
X341.185Y-310.896
X264.224Y-322.326
X264.224Y-329.946
X116.903Y-241.49
X116.903Y-251.65
X242.506Y-272.478
X242.506Y-280.099
X279.654Y-336.804
X279.654Y-346.964
X116.84Y-229.044
X116.84Y-239.204
X190.436Y-362.013
X190.436Y-372.173
X151.003Y-363.537
X158.623Y-363.537
X173.99Y-203.136
X173.99Y-213.296
X227.076Y-179.006
X227.076Y-189.166
X273.812Y-242.316
X273.812Y-252.476
X131.636Y-363.41
X131.636Y-365.95
X139.255Y-363.41
X139.255Y-365.95
X271.399Y-167.132
X271.399Y-174.752
X271.399Y-178.943
X271.399Y-186.563
X226.822Y-173.418
X226.822Y-175.958
X234.442Y-173.418
X234.442Y-175.958
X135.636Y-317.881
X135.636Y-328.041
X173.99Y-275.844
X181.61Y-275.844
X216.789Y-188.722
X216.789Y-196.342
X262.318Y-317.881
X269.938Y-317.881
X260.794Y-261.112
X260.794Y-268.732
X264.224Y-332.486
X264.224Y-342.646
X143.51Y-221.488
X143.51Y-229.108
X282.702Y-324.485
X282.702Y-334.645
X306.133Y-329.438
X306.133Y-339.598
X299.911Y-329.311
X299.911Y-339.471
X169.355Y-382.841
X169.355Y-393.001
X225.044Y-323.977
X225.044Y-326.517
X232.664Y-323.977
X232.664Y-326.517
X302.704Y-306.07
X302.704Y-313.69
X285.75Y-336.677
X285.75Y-346.837
X162.433Y-224.155
X162.433Y-231.775
X151.003Y-354.901
X151.003Y-357.441
X158.623Y-354.901
X158.623Y-357.441
X260.858Y-250.254
X260.858Y-257.873
X205.677Y-367.094
X205.677Y-377.253
X245.237Y-166.37
X245.237Y-168.91
X252.857Y-166.37
X252.857Y-168.91
X338.899Y-278.257
X338.899Y-280.797
X346.519Y-278.257
X346.519Y-280.797
X131.636Y-371.792
X139.255Y-371.792
X292.163Y-247.396
X292.163Y-257.556
X264.414Y-178.435
X264.414Y-188.595
X264.287Y-165.862
X264.287Y-176.022
X281.305Y-255.905
X281.305Y-263.525
X199.962Y-196.024
X199.962Y-203.644
X300.673Y-301.498
X308.292Y-301.498
X117.03Y-223.393
X117.03Y-225.933
X124.65Y-223.393
X124.65Y-225.933
X309.181Y-222.504
X309.181Y-225.044
X316.801Y-222.504
X316.801Y-225.044
X157.861Y-297.307
X157.861Y-307.467
X135.636Y-281.686
X135.636Y-284.226
X143.256Y-281.686
X143.256Y-284.226
X280.924Y-301.752
X280.924Y-304.292
X288.544Y-301.752
X288.544Y-304.292
X192.405Y-268.097
X200.025Y-268.097
X299.275Y-248.475
X299.275Y-256.096
X197.485Y-295.402
X197.485Y-305.562
X338.264Y-313.055
X338.264Y-323.215
X175.704Y-382.714
X175.704Y-392.874
X133.413Y-386.143
X133.413Y-396.303
X303.085Y-149.923
X303.085Y-160.083
X173.99Y-215.837
X173.99Y-225.996
X330.454Y-142.621
X330.454Y-150.241
X135.89Y-214.503
X135.89Y-217.043
X143.51Y-214.503
X143.51Y-217.043
X253.238Y-243.332
X253.238Y-245.872
X260.858Y-243.332
X260.858Y-245.872
X242.887Y-352.361
X242.887Y-362.522
X273.748Y-236.791
X273.748Y-239.331
X281.368Y-236.791
X281.368Y-239.331
X319.595Y-286.385
X319.595Y-288.925
X327.215Y-286.385
X327.215Y-288.925
X344.233Y-312.928
X344.233Y-323.088
X224.028Y-359.156
X224.028Y-369.316
X152.527Y-368.236
X152.527Y-375.856
X322.834Y-135.826
X322.834Y-138.367
X330.454Y-135.826
X330.454Y-138.367
X169.989Y-355.409
X177.609Y-355.409
X155.067Y-205.359
X155.067Y-207.899
X162.687Y-205.359
X162.687Y-207.899
X291.973Y-229.362
X291.973Y-231.902
X299.593Y-229.362
X299.593Y-231.902
X273.939Y-255.016
X273.939Y-265.176
X141.986Y-317.881
X141.986Y-328.041
X117.729Y-288.798
X117.729Y-291.338
X125.349Y-288.798
X125.349Y-291.338
X209.677Y-199.39
X209.677Y-209.55
X192.722Y-193.611
X192.722Y-203.772
X194.945Y-282.702
X194.945Y-292.862
X216.662Y-200.279
X216.662Y-207.899
X323.279Y-154.178
X323.279Y-164.338
X283.083Y-151.638
X283.083Y-154.178
X290.703Y-151.638
X290.703Y-154.178
X235.077Y-253.555
X235.077Y-256.096
X242.697Y-253.555
X242.697Y-256.096
X173.482Y-267.462
X173.482Y-270.002
X181.102Y-267.462
X181.102Y-270.002
X290.767Y-171.132
X290.767Y-178.752
X290.639Y-158.052
X290.639Y-165.671
X208.851Y-344.614
X208.851Y-352.234
X339.407Y-286.385
X347.027Y-286.385
X281.305Y-243.586
X281.305Y-251.206
X324.421Y-321.437
X324.421Y-331.597
X300.291Y-293.116
X300.291Y-295.656
X307.911Y-293.116
X307.911Y-295.656
X179.07Y-302.514
X179.07Y-312.674
X161.036Y-310.007
X161.036Y-320.167
X136.334Y-398.716
X136.334Y-408.876
X253.619Y-248.92
X253.619Y-259.08
X309.435Y-240.665
X309.435Y-250.825
X310.832Y-151.32
X310.832Y-158.94
X319.849Y-294.767
X327.469Y-294.767
X261.048Y-344.551
X261.048Y-354.711
X302.958Y-162.56
X302.958Y-172.72
X303.339Y-143.701
X303.339Y-146.24
X310.959Y-143.701
X310.959Y-146.24
X212.153Y-366.966
X212.153Y-377.126
X117.729Y-296.926
X125.349Y-296.926
X242.506Y-260.35
X242.506Y-267.97
X136.271Y-290.576
X143.891Y-290.576
X252.73Y-185.483
X252.73Y-193.103
X122.809Y-323.342
X122.809Y-333.502
X206.692Y-331.406
X206.692Y-333.946
X214.312Y-331.406
X214.312Y-333.946
X192.405Y-259.842
X192.405Y-262.382
X200.025Y-259.842
X200.025Y-262.382
X191.77Y-295.402
X191.77Y-305.562
X209.677Y-186.817
X209.677Y-196.977
T4
X120.65Y-255.46
X123.19Y-255.46
X168.402Y-275.336
X170.942Y-275.336
X183.07Y-347.535
X185.611Y-347.535
X237.807Y-285.623
X240.347Y-285.623
X295.339Y-301.625
X297.878Y-301.625
X248.412Y-198.247
X250.952Y-198.247
X256.731Y-317.627
X259.27Y-317.627
X326.327Y-167.703
X328.866Y-167.703
X149.606Y-282.702
X152.146Y-282.702
X201.358Y-340.042
X203.898Y-340.042
X256.413Y-275.971
X258.953Y-275.971
X314.515Y-294.386
X317.055Y-294.386
X286.258Y-184.213
X288.798Y-184.213
X177.038Y-229.298
X179.578Y-229.298
X145.415Y-364.046
X147.955Y-364.046
X294.703Y-260.985
X297.243Y-260.985
X229.997Y-205.549
X232.537Y-205.549
X139.192Y-246.888
X141.732Y-246.888
X238.442Y-325.056
X240.982Y-325.056
X195.389Y-219.9
X197.929Y-219.9
X112.141Y-295.91
X114.681Y-295.91
X126.301Y-371.666
X128.841Y-371.666
X312.166Y-254.444
X314.706Y-254.444
X333.946Y-286.639
X336.486Y-286.639
X267.462Y-192.087
X270.002Y-192.087
X158.433Y-236.918
X160.972Y-236.918
X212.217Y-213.106
X214.757Y-213.106
X131.191Y-289.941
X133.731Y-289.941
X164.401Y-355.663
X166.941Y-355.663
X187.325Y-268.097
X189.865Y-268.097
X220.218Y-332.486
X222.758Y-332.486
X276.86Y-268.796
X279.4Y-268.796
X275.971Y-310.388
X278.511Y-310.388
X306.133Y-176.339
X308.673Y-176.339
T5
X194.31Y-317.627
X194.31Y-320.167
X194.31Y-322.707
X267.335Y-148.653
X267.335Y-151.194
X267.335Y-153.733
X314.135Y-211.518
X314.135Y-214.058
X314.135Y-216.599
X249.237Y-155.385
X249.237Y-157.924
X249.237Y-160.464
X257.365Y-232.41
X257.365Y-234.95
X257.365Y-237.49
X227.584Y-381.762
X227.584Y-384.302
X227.584Y-386.842
X208.089Y-389.065
X208.089Y-391.604
X208.089Y-394.144
X152.654Y-413.321
X152.654Y-415.861
X152.654Y-418.401
X246.062Y-373.952
X246.062Y-376.491
X246.062Y-379.031
X133.731Y-421.068
X133.731Y-423.608
X133.731Y-426.148
X177.927Y-186.499
X177.927Y-189.04
X177.927Y-191.579
X287.782Y-140.653
X287.782Y-143.192
X287.782Y-145.732
X306.895Y-132.524
X306.895Y-135.064
X306.895Y-137.605
X296.164Y-218.504
X296.164Y-221.043
X296.164Y-223.583
X277.241Y-225.742
X277.241Y-228.282
X277.241Y-230.822
X321.246Y-343.662
X321.246Y-346.202
X321.246Y-348.742
X157.861Y-332.867
X157.861Y-335.407
X157.861Y-337.947
X230.569Y-162.243
X230.569Y-164.782
X230.569Y-167.322
X340.804Y-335.407
X340.804Y-337.947
X340.804Y-340.487
X140.081Y-340.106
X140.081Y-342.646
X140.081Y-345.186
X196.786Y-176.975
X196.786Y-179.514
X196.786Y-182.054
X282.448Y-359.156
X282.448Y-361.696
X282.448Y-364.236
X158.94Y-193.992
X158.94Y-196.532
X158.94Y-199.072
X190.754Y-397.7
X190.754Y-400.24
X190.754Y-402.78
X239.395Y-242.443
X239.395Y-244.983
X239.395Y-247.523
X172.022Y-405.193
X172.022Y-407.733
X172.022Y-410.273
X120.65Y-212.28
X120.65Y-214.82
X120.65Y-217.361
X303.085Y-351.917
X303.085Y-354.457
X303.085Y-356.997
X212.725Y-170.053
X212.725Y-172.593
X212.725Y-175.133
X264.858Y-366.776
X264.858Y-369.316
X264.858Y-371.856
X119.761Y-345.186
X119.761Y-347.726
X119.761Y-350.266
X326.517Y-124.841
X326.517Y-127.381
X326.517Y-129.921
X139.065Y-203.581
X139.065Y-206.121
X139.065Y-208.661
X175.768Y-324.612
X175.768Y-327.152
X175.768Y-329.692
T6
X209.042Y-251.206
X209.042Y-253.746
X209.042Y-256.286
X209.042Y-258.826
X209.042Y-261.366
X209.042Y-263.906
X209.042Y-266.446
X209.042Y-268.986
X209.042Y-271.526
X209.042Y-274.066
X209.042Y-276.606
X209.042Y-279.146
X209.042Y-281.686
X209.042Y-284.226
X209.042Y-286.766
X209.042Y-289.306
X209.042Y-291.846
X209.042Y-294.386
X209.042Y-296.926
X209.042Y-299.466
X209.042Y-302.006
X209.042Y-304.546
X209.042Y-307.086
X209.042Y-309.626
X224.282Y-251.206
X224.282Y-253.746
X224.282Y-256.286
X224.282Y-258.826
X224.282Y-261.366
X224.282Y-263.906
X224.282Y-266.446
X224.282Y-268.986
X224.282Y-271.526
X224.282Y-274.066
X224.282Y-276.606
X224.282Y-279.146
X224.282Y-281.686
X224.282Y-284.226
X224.282Y-286.766
X224.282Y-289.306
X224.282Y-291.846
X224.282Y-294.386
X224.282Y-296.926
X224.282Y-299.466
X224.282Y-302.006
X224.282Y-304.546
X224.282Y-307.086
X224.282Y-309.626
T7
X196.515Y-126.33
X196.615Y-121.03
X200.715Y-126.33
X200.815Y-121.03
X204.915Y-126.33
X205.015Y-121.03
X209.115Y-126.33
X209.215Y-121.03
X213.315Y-126.33
X213.415Y-121.03
X217.515Y-126.33
X217.615Y-121.03
X221.715Y-126.33
X221.815Y-121.03
X225.915Y-126.33
X226.015Y-121.03
X230.115Y-126.33
X230.215Y-121.03
X234.315Y-126.33
X234.415Y-121.03
X238.515Y-126.33
X238.615Y-121.03
X242.715Y-126.33
X242.815Y-121.03
X207.4Y-425.705
X207.5Y-420.405
X211.6Y-425.705
X211.7Y-420.405
X215.8Y-425.705
X215.9Y-420.405
X220.0Y-425.705
X220.1Y-420.405
X224.2Y-425.705
X224.3Y-420.405
X228.4Y-425.705
X228.5Y-420.405
X232.6Y-425.705
X232.7Y-420.405
X236.8Y-425.705
X236.9Y-420.405
X241.0Y-425.705
X241.1Y-420.405
X245.2Y-425.705
X245.3Y-420.405
X249.4Y-425.705
X249.5Y-420.405
X253.6Y-425.705
X253.7Y-420.405
T5
G00X336.423Y-240.839
M15
G01X336.423Y-238.839
M16
G05
G00X340.423Y-235.139
M15
G01X338.423Y-235.139
M16
G05
G00X342.423Y-240.839
M15
G01X342.423Y-238.839
M16
G05
T0
M30
