G04 #@! TF.GenerationSoftware,KiCad,Pcbnew,(5.0.0-3-g5ebb6b6)*
G04 #@! TF.CreationDate,2019-04-13T13:39:12-06:00*
G04 #@! TF.ProjectId,VasulkaTranslocationPCB,566173756C6B615472616E736C6F6361,rev?*
G04 #@! TF.SameCoordinates,Original*
G04 #@! TF.FileFunction,Soldermask,Bot*
G04 #@! TF.FilePolarity,Negative*
%FSLAX46Y46*%
G04 Gerber Fmt 4.6, Leading zero omitted, Abs format (unit mm)*
G04 Created by KiCad (PCBNEW (5.0.0-3-g5ebb6b6)) date Saturday, April 13, 2019 at 01:39:12 PM*
%MOMM*%
%LPD*%
G01*
G04 APERTURE LIST*
%ADD10O,2.000000X2.000000*%
%ADD11C,2.000000*%
%ADD12C,3.600000*%
%ADD13R,2.000000X2.000000*%
%ADD14C,2.432000*%
%ADD15C,2.200000*%
%ADD16R,2.200000X2.200000*%
%ADD17R,3.900000X3.900000*%
%ADD18O,2.200000X2.200000*%
%ADD19O,1.300000X1.900000*%
%ADD20R,1.300000X1.900000*%
%ADD21R,2.000000X2.800000*%
%ADD22O,2.000000X2.800000*%
%ADD23R,2.800000X2.000000*%
%ADD24O,2.800000X2.000000*%
G04 APERTURE END LIST*
D10*
G04 #@! TO.C,R34*
X176149000Y-254000000D03*
D11*
X176149000Y-243840000D03*
G04 #@! TD*
G04 #@! TO.C,R36*
X181229000Y-254000000D03*
D10*
X181229000Y-243840000D03*
G04 #@! TD*
D12*
G04 #@! TO.C,MH2*
X114300000Y-431800000D03*
G04 #@! TD*
D11*
G04 #@! TO.C,U1*
X227076000Y-256032000D03*
X227076000Y-258572000D03*
X227076000Y-261112000D03*
X227076000Y-263652000D03*
X227076000Y-253492000D03*
X227076000Y-250952000D03*
X227076000Y-248412000D03*
X227076000Y-266192000D03*
X227076000Y-268732000D03*
X227076000Y-271272000D03*
X227076000Y-273812000D03*
X229616000Y-261112000D03*
X232156000Y-261112000D03*
X234696000Y-261112000D03*
X237236000Y-261112000D03*
X239776000Y-261112000D03*
X242316000Y-273812000D03*
X242316000Y-271272000D03*
X242316000Y-268732000D03*
X242316000Y-266192000D03*
X242316000Y-263652000D03*
X242316000Y-261112000D03*
X242316000Y-258572000D03*
X242316000Y-256032000D03*
X227076000Y-245872000D03*
X227076000Y-243332000D03*
X227076000Y-240792000D03*
X227076000Y-238252000D03*
X227076000Y-235712000D03*
X227076000Y-233172000D03*
X227076000Y-230632000D03*
X227076000Y-228092000D03*
X227076000Y-225552000D03*
X227076000Y-223012000D03*
X227076000Y-220472000D03*
X227076000Y-217932000D03*
D13*
X227076000Y-215392000D03*
D11*
X242316000Y-253492000D03*
X242316000Y-250952000D03*
X242316000Y-248412000D03*
X242316000Y-245872000D03*
X242316000Y-243332000D03*
X242316000Y-240792000D03*
X242316000Y-238252000D03*
X242316000Y-235712000D03*
X242316000Y-233172000D03*
X242316000Y-230632000D03*
X242316000Y-228092000D03*
X242316000Y-225552000D03*
X242316000Y-223012000D03*
X242316000Y-220472000D03*
X242316000Y-217932000D03*
X242316000Y-215392000D03*
X239776000Y-217932000D03*
X239776000Y-223012000D03*
X239776000Y-225552000D03*
X239776000Y-228092000D03*
X234696000Y-230632000D03*
X234696000Y-233172000D03*
X234696000Y-235712000D03*
X234696000Y-238252000D03*
X234696000Y-253492000D03*
X234696000Y-256032000D03*
X234696000Y-258572000D03*
X234696000Y-263652000D03*
X234696000Y-266192000D03*
X234696000Y-268732000D03*
X234696000Y-271272000D03*
X234696000Y-273812000D03*
X237236000Y-273812000D03*
X237236000Y-271272000D03*
X237236000Y-268732000D03*
X237236000Y-266192000D03*
X237236000Y-263652000D03*
X237236000Y-258572000D03*
X237236000Y-256032000D03*
X237236000Y-253492000D03*
X237236000Y-238252000D03*
X237236000Y-235712000D03*
X237236000Y-233172000D03*
X237236000Y-230632000D03*
X230076000Y-221742000D03*
X230076000Y-224282000D03*
X230076000Y-226822000D03*
X230076000Y-229362000D03*
X230076000Y-231902000D03*
G04 #@! TD*
D14*
G04 #@! TO.C,J1*
X243032000Y-420341500D03*
X238832000Y-420341500D03*
X234632000Y-420341500D03*
X230432000Y-420341500D03*
X226232000Y-420341500D03*
X222032000Y-420341500D03*
X217832000Y-420341500D03*
X213632000Y-420341500D03*
X209432000Y-420341500D03*
X205232000Y-420341500D03*
X201032000Y-420341500D03*
X196832000Y-420341500D03*
X196732000Y-425641500D03*
X200932000Y-425641500D03*
X205132000Y-425641500D03*
X209332000Y-425641500D03*
X213532000Y-425641500D03*
X217732000Y-425641500D03*
X221932000Y-425641500D03*
X226132000Y-425641500D03*
X230332000Y-425641500D03*
X234532000Y-425641500D03*
X238732000Y-425641500D03*
X242932000Y-425641500D03*
G04 #@! TD*
G04 #@! TO.C,J2*
X211120000Y-125060000D03*
X215320000Y-125060000D03*
X219520000Y-125060000D03*
X223720000Y-125060000D03*
X227920000Y-125060000D03*
X232120000Y-125060000D03*
X236320000Y-125060000D03*
X240520000Y-125060000D03*
X244720000Y-125060000D03*
X248920000Y-125060000D03*
X253120000Y-125060000D03*
X257320000Y-125060000D03*
X257420000Y-119760000D03*
X253220000Y-119760000D03*
X249020000Y-119760000D03*
X244820000Y-119760000D03*
X240620000Y-119760000D03*
X236420000Y-119760000D03*
X232220000Y-119760000D03*
X228020000Y-119760000D03*
X223820000Y-119760000D03*
X219620000Y-119760000D03*
X215420000Y-119760000D03*
X211220000Y-119760000D03*
G04 #@! TD*
D15*
G04 #@! TO.C,D1*
X296799000Y-354330000D03*
D16*
X296799000Y-351790000D03*
G04 #@! TD*
D15*
G04 #@! TO.C,D2*
X296418000Y-382524000D03*
D16*
X296418000Y-379984000D03*
G04 #@! TD*
D15*
G04 #@! TO.C,D3*
X295084500Y-411162500D03*
D16*
X295084500Y-408622500D03*
G04 #@! TD*
G04 #@! TO.C,D4*
X141541500Y-318071500D03*
D15*
X141541500Y-320611500D03*
G04 #@! TD*
G04 #@! TO.C,D5*
X139065000Y-351028000D03*
D16*
X139065000Y-348488000D03*
G04 #@! TD*
D15*
G04 #@! TO.C,D6*
X137985500Y-381190500D03*
D16*
X137985500Y-378650500D03*
G04 #@! TD*
G04 #@! TO.C,D7*
X137922000Y-407416000D03*
D15*
X137922000Y-409956000D03*
G04 #@! TD*
G04 #@! TO.C,D8*
X173736000Y-265874500D03*
D16*
X173736000Y-263334500D03*
G04 #@! TD*
D15*
G04 #@! TO.C,D9*
X173926500Y-295529000D03*
D16*
X173926500Y-292989000D03*
G04 #@! TD*
G04 #@! TO.C,D10*
X175006000Y-321881500D03*
D15*
X175006000Y-324421500D03*
G04 #@! TD*
G04 #@! TO.C,D11*
X174053500Y-354076000D03*
D16*
X174053500Y-351536000D03*
G04 #@! TD*
G04 #@! TO.C,D12*
X173863000Y-380047500D03*
D15*
X173863000Y-382587500D03*
G04 #@! TD*
D16*
G04 #@! TO.C,D13*
X268160500Y-274447000D03*
D15*
X268160500Y-276987000D03*
G04 #@! TD*
D16*
G04 #@! TO.C,D14*
X267271500Y-300355000D03*
D15*
X267271500Y-302895000D03*
G04 #@! TD*
D16*
G04 #@! TO.C,D15*
X265874500Y-327660000D03*
D15*
X265874500Y-330200000D03*
G04 #@! TD*
D16*
G04 #@! TO.C,D16*
X265303000Y-355663500D03*
D15*
X265303000Y-358203500D03*
G04 #@! TD*
D16*
G04 #@! TO.C,D17*
X265112500Y-384429000D03*
D15*
X265112500Y-386969000D03*
G04 #@! TD*
D17*
G04 #@! TO.C,J3*
X115110000Y-262510000D03*
X112110000Y-257810000D03*
X118110000Y-257810000D03*
G04 #@! TD*
D18*
G04 #@! TO.C,Q1*
X157924500Y-121031000D03*
X157924500Y-118491000D03*
D16*
X157924500Y-115951000D03*
G04 #@! TD*
D18*
G04 #@! TO.C,Q4*
X156654500Y-149606000D03*
X156654500Y-147066000D03*
D16*
X156654500Y-144526000D03*
G04 #@! TD*
D19*
G04 #@! TO.C,Q5*
X150304500Y-148336000D03*
X151574500Y-148336000D03*
D20*
X149034500Y-148336000D03*
G04 #@! TD*
D16*
G04 #@! TO.C,Q6*
X156908500Y-173037500D03*
D18*
X156908500Y-175577500D03*
X156908500Y-178117500D03*
G04 #@! TD*
D20*
G04 #@! TO.C,Q7*
X149288500Y-176847500D03*
D19*
X151828500Y-176847500D03*
X150558500Y-176847500D03*
G04 #@! TD*
D18*
G04 #@! TO.C,Q8*
X157099000Y-207200500D03*
X157099000Y-204660500D03*
D16*
X157099000Y-202120500D03*
G04 #@! TD*
D19*
G04 #@! TO.C,Q9*
X150749000Y-205930500D03*
X152019000Y-205930500D03*
D20*
X149479000Y-205930500D03*
G04 #@! TD*
D16*
G04 #@! TO.C,Q10*
X186055000Y-147445500D03*
D18*
X186055000Y-149985500D03*
X186055000Y-152525500D03*
G04 #@! TD*
D20*
G04 #@! TO.C,Q11*
X178435000Y-151255500D03*
D19*
X180975000Y-151255500D03*
X179705000Y-151255500D03*
G04 #@! TD*
D16*
G04 #@! TO.C,Q12*
X185293000Y-176593500D03*
D18*
X185293000Y-179133500D03*
X185293000Y-181673500D03*
G04 #@! TD*
D19*
G04 #@! TO.C,Q13*
X178943000Y-180403500D03*
X180213000Y-180403500D03*
D20*
X177673000Y-180403500D03*
G04 #@! TD*
D18*
G04 #@! TO.C,Q14*
X185102500Y-211010500D03*
X185102500Y-208470500D03*
D16*
X185102500Y-205930500D03*
G04 #@! TD*
D20*
G04 #@! TO.C,Q15*
X177482500Y-209740500D03*
D19*
X180022500Y-209740500D03*
X178752500Y-209740500D03*
G04 #@! TD*
D16*
G04 #@! TO.C,Q16*
X185039000Y-234950000D03*
D18*
X185039000Y-237490000D03*
X185039000Y-240030000D03*
G04 #@! TD*
D19*
G04 #@! TO.C,Q17*
X178689000Y-238760000D03*
X179959000Y-238760000D03*
D20*
X177419000Y-238760000D03*
G04 #@! TD*
D16*
G04 #@! TO.C,Q18*
X214058500Y-174498000D03*
D18*
X214058500Y-177038000D03*
X214058500Y-179578000D03*
G04 #@! TD*
D20*
G04 #@! TO.C,Q19*
X206438500Y-178308000D03*
D19*
X208978500Y-178308000D03*
X207708500Y-178308000D03*
G04 #@! TD*
D16*
G04 #@! TO.C,Q20*
X213614000Y-203517500D03*
D18*
X213614000Y-206057500D03*
X213614000Y-208597500D03*
G04 #@! TD*
D19*
G04 #@! TO.C,Q21*
X207264000Y-206057500D03*
X208534000Y-206057500D03*
D20*
X205994000Y-206057500D03*
G04 #@! TD*
D16*
G04 #@! TO.C,Q22*
X213423500Y-233299000D03*
D18*
X213423500Y-235839000D03*
X213423500Y-238379000D03*
G04 #@! TD*
D19*
G04 #@! TO.C,Q23*
X207073500Y-237109000D03*
X208343500Y-237109000D03*
D20*
X205803500Y-237109000D03*
G04 #@! TD*
D18*
G04 #@! TO.C,Q24*
X211582000Y-267081000D03*
X211582000Y-264541000D03*
D16*
X211582000Y-262001000D03*
G04 #@! TD*
D19*
G04 #@! TO.C,Q25*
X205232000Y-265811000D03*
X206502000Y-265811000D03*
D20*
X203962000Y-265811000D03*
G04 #@! TD*
D18*
G04 #@! TO.C,Q26*
X275209000Y-239014000D03*
X275209000Y-236474000D03*
D16*
X275209000Y-233934000D03*
G04 #@! TD*
D19*
G04 #@! TO.C,Q27*
X282829000Y-235204000D03*
X281559000Y-235204000D03*
D20*
X284099000Y-235204000D03*
G04 #@! TD*
D16*
G04 #@! TO.C,Q28*
X248856500Y-183197500D03*
D18*
X248856500Y-185737500D03*
X248856500Y-188277500D03*
G04 #@! TD*
D20*
G04 #@! TO.C,Q29*
X257746500Y-184467500D03*
D19*
X255206500Y-184467500D03*
X256476500Y-184467500D03*
G04 #@! TD*
D18*
G04 #@! TO.C,Q30*
X274764500Y-211074000D03*
X274764500Y-208534000D03*
D16*
X274764500Y-205994000D03*
G04 #@! TD*
D20*
G04 #@! TO.C,Q31*
X283654500Y-207264000D03*
D19*
X281114500Y-207264000D03*
X282384500Y-207264000D03*
G04 #@! TD*
D18*
G04 #@! TO.C,Q32*
X274002500Y-181610000D03*
X274002500Y-179070000D03*
D16*
X274002500Y-176530000D03*
G04 #@! TD*
D20*
G04 #@! TO.C,Q33*
X282892500Y-179070000D03*
D19*
X280352500Y-179070000D03*
X281622500Y-179070000D03*
G04 #@! TD*
D18*
G04 #@! TO.C,Q34*
X272415000Y-151828500D03*
X272415000Y-149288500D03*
D16*
X272415000Y-146748500D03*
G04 #@! TD*
D20*
G04 #@! TO.C,Q35*
X281305000Y-149288500D03*
D19*
X278765000Y-149288500D03*
X280035000Y-149288500D03*
G04 #@! TD*
D18*
G04 #@! TO.C,Q36*
X284988000Y-388874000D03*
X284988000Y-391414000D03*
D16*
X284988000Y-393954000D03*
G04 #@! TD*
G04 #@! TO.C,Q37*
X283654500Y-422592500D03*
D18*
X283654500Y-420052500D03*
X283654500Y-417512500D03*
G04 #@! TD*
G04 #@! TO.C,Q38*
X128841500Y-334581500D03*
X128841500Y-332041500D03*
D16*
X128841500Y-329501500D03*
G04 #@! TD*
G04 #@! TO.C,Q39*
X126365000Y-361188000D03*
D18*
X126365000Y-363728000D03*
X126365000Y-366268000D03*
G04 #@! TD*
D16*
G04 #@! TO.C,Q40*
X126555500Y-390080500D03*
D18*
X126555500Y-392620500D03*
X126555500Y-395160500D03*
G04 #@! TD*
G04 #@! TO.C,Q41*
X125222000Y-425196000D03*
X125222000Y-422656000D03*
D16*
X125222000Y-420116000D03*
G04 #@! TD*
D18*
G04 #@! TO.C,Q42*
X162306000Y-279844500D03*
X162306000Y-277304500D03*
D16*
X162306000Y-274764500D03*
G04 #@! TD*
G04 #@! TO.C,Q43*
X162496500Y-305689000D03*
D18*
X162496500Y-308229000D03*
X162496500Y-310769000D03*
G04 #@! TD*
G04 #@! TO.C,Q44*
X162306000Y-339661500D03*
X162306000Y-337121500D03*
D16*
X162306000Y-334581500D03*
G04 #@! TD*
D18*
G04 #@! TO.C,Q45*
X161353500Y-368046000D03*
X161353500Y-365506000D03*
D16*
X161353500Y-362966000D03*
G04 #@! TD*
G04 #@! TO.C,Q46*
X161163000Y-390207500D03*
D18*
X161163000Y-392747500D03*
X161163000Y-395287500D03*
G04 #@! TD*
G04 #@! TO.C,Q47*
X255460500Y-283337000D03*
X255460500Y-285877000D03*
D16*
X255460500Y-288417000D03*
G04 #@! TD*
G04 #@! TO.C,Q48*
X254571500Y-314325000D03*
D18*
X254571500Y-311785000D03*
X254571500Y-309245000D03*
G04 #@! TD*
G04 #@! TO.C,Q49*
X254444500Y-336550000D03*
X254444500Y-339090000D03*
D16*
X254444500Y-341630000D03*
G04 #@! TD*
G04 #@! TO.C,Q50*
X253873000Y-369633500D03*
D18*
X253873000Y-367093500D03*
X253873000Y-364553500D03*
G04 #@! TD*
D16*
G04 #@! TO.C,Q51*
X253682500Y-398399000D03*
D18*
X253682500Y-395859000D03*
X253682500Y-393319000D03*
G04 #@! TD*
D11*
G04 #@! TO.C,R1*
X150304500Y-110934500D03*
D10*
X157924500Y-110934500D03*
G04 #@! TD*
G04 #@! TO.C,R2*
X149034500Y-135064500D03*
D11*
X149034500Y-124904500D03*
G04 #@! TD*
G04 #@! TO.C,R3*
X143954500Y-124904500D03*
D10*
X143954500Y-135064500D03*
G04 #@! TD*
G04 #@! TO.C,R4*
X154114500Y-124904500D03*
D11*
X154114500Y-135064500D03*
G04 #@! TD*
D10*
G04 #@! TO.C,R5*
X295529000Y-374650000D03*
D11*
X303149000Y-374650000D03*
G04 #@! TD*
D10*
G04 #@! TO.C,R6*
X303149000Y-351790000D03*
D11*
X303149000Y-359410000D03*
G04 #@! TD*
D10*
G04 #@! TO.C,R7*
X291719000Y-363220000D03*
D11*
X291719000Y-353060000D03*
G04 #@! TD*
G04 #@! TO.C,R8*
X291719000Y-375920000D03*
D10*
X291719000Y-365760000D03*
G04 #@! TD*
D11*
G04 #@! TO.C,R9*
X149034500Y-139446000D03*
D10*
X156654500Y-139446000D03*
G04 #@! TD*
G04 #@! TO.C,R10*
X147764500Y-163576000D03*
D11*
X147764500Y-153416000D03*
G04 #@! TD*
D10*
G04 #@! TO.C,R11*
X142684500Y-163576000D03*
D11*
X142684500Y-153416000D03*
G04 #@! TD*
D10*
G04 #@! TO.C,R12*
X152844500Y-153416000D03*
D11*
X152844500Y-163576000D03*
G04 #@! TD*
G04 #@! TO.C,R13*
X149288500Y-167957500D03*
D10*
X156908500Y-167957500D03*
G04 #@! TD*
D11*
G04 #@! TO.C,R14*
X148018500Y-181927500D03*
D10*
X148018500Y-192087500D03*
G04 #@! TD*
G04 #@! TO.C,R15*
X142938500Y-192087500D03*
D11*
X142938500Y-181927500D03*
G04 #@! TD*
G04 #@! TO.C,R16*
X153098500Y-192087500D03*
D10*
X153098500Y-181927500D03*
G04 #@! TD*
D11*
G04 #@! TO.C,R17*
X149479000Y-197040500D03*
D10*
X157099000Y-197040500D03*
G04 #@! TD*
D11*
G04 #@! TO.C,R18*
X148209000Y-211010500D03*
D10*
X148209000Y-221170500D03*
G04 #@! TD*
G04 #@! TO.C,R19*
X143129000Y-221170500D03*
D11*
X143129000Y-211010500D03*
G04 #@! TD*
G04 #@! TO.C,R20*
X153289000Y-221170500D03*
D10*
X153289000Y-211010500D03*
G04 #@! TD*
D11*
G04 #@! TO.C,R21*
X178435000Y-142365500D03*
D10*
X186055000Y-142365500D03*
G04 #@! TD*
G04 #@! TO.C,R22*
X177165000Y-166495500D03*
D11*
X177165000Y-156335500D03*
G04 #@! TD*
D10*
G04 #@! TO.C,R23*
X172085000Y-166495500D03*
D11*
X172085000Y-156335500D03*
G04 #@! TD*
G04 #@! TO.C,R24*
X182245000Y-166495500D03*
D10*
X182245000Y-156335500D03*
G04 #@! TD*
D11*
G04 #@! TO.C,R25*
X177673000Y-171513500D03*
D10*
X185293000Y-171513500D03*
G04 #@! TD*
G04 #@! TO.C,R26*
X176403000Y-195643500D03*
D11*
X176403000Y-185483500D03*
G04 #@! TD*
G04 #@! TO.C,R27*
X171323000Y-185483500D03*
D10*
X171323000Y-195643500D03*
G04 #@! TD*
G04 #@! TO.C,R28*
X181483000Y-185483500D03*
D11*
X181483000Y-195643500D03*
G04 #@! TD*
D10*
G04 #@! TO.C,R29*
X185102500Y-200850500D03*
D11*
X177482500Y-200850500D03*
G04 #@! TD*
G04 #@! TO.C,R30*
X176212500Y-214820500D03*
D10*
X176212500Y-224980500D03*
G04 #@! TD*
D11*
G04 #@! TO.C,R31*
X171132500Y-214820500D03*
D10*
X171132500Y-224980500D03*
G04 #@! TD*
D11*
G04 #@! TO.C,R32*
X181292500Y-224980500D03*
D10*
X181292500Y-214820500D03*
G04 #@! TD*
D11*
G04 #@! TO.C,R33*
X177419000Y-229870000D03*
D10*
X185039000Y-229870000D03*
G04 #@! TD*
G04 #@! TO.C,R35*
X171069000Y-254000000D03*
D11*
X171069000Y-243840000D03*
G04 #@! TD*
D10*
G04 #@! TO.C,R37*
X214058500Y-169418000D03*
D11*
X206438500Y-169418000D03*
G04 #@! TD*
D10*
G04 #@! TO.C,R38*
X205168500Y-193548000D03*
D11*
X205168500Y-183388000D03*
G04 #@! TD*
G04 #@! TO.C,R39*
X200088500Y-183388000D03*
D10*
X200088500Y-193548000D03*
G04 #@! TD*
G04 #@! TO.C,R40*
X210248500Y-183388000D03*
D11*
X210248500Y-193548000D03*
G04 #@! TD*
G04 #@! TO.C,R41*
X205994000Y-198437500D03*
D10*
X213614000Y-198437500D03*
G04 #@! TD*
D11*
G04 #@! TO.C,R42*
X204724000Y-212407500D03*
D10*
X204724000Y-222567500D03*
G04 #@! TD*
D11*
G04 #@! TO.C,R43*
X199644000Y-212407500D03*
D10*
X199644000Y-222567500D03*
G04 #@! TD*
D11*
G04 #@! TO.C,R44*
X209804000Y-222567500D03*
D10*
X209804000Y-212407500D03*
G04 #@! TD*
G04 #@! TO.C,R45*
X213423500Y-228219000D03*
D11*
X205803500Y-228219000D03*
G04 #@! TD*
D10*
G04 #@! TO.C,R46*
X204533500Y-252349000D03*
D11*
X204533500Y-242189000D03*
G04 #@! TD*
D10*
G04 #@! TO.C,R47*
X199453500Y-252349000D03*
D11*
X199453500Y-242189000D03*
G04 #@! TD*
G04 #@! TO.C,R48*
X209613500Y-252349000D03*
D10*
X209613500Y-242189000D03*
G04 #@! TD*
D11*
G04 #@! TO.C,R49*
X203962000Y-256921000D03*
D10*
X211582000Y-256921000D03*
G04 #@! TD*
G04 #@! TO.C,R50*
X202692000Y-281051000D03*
D11*
X202692000Y-270891000D03*
G04 #@! TD*
G04 #@! TO.C,R51*
X197612000Y-270891000D03*
D10*
X197612000Y-281051000D03*
G04 #@! TD*
G04 #@! TO.C,R52*
X207772000Y-270891000D03*
D11*
X207772000Y-281051000D03*
G04 #@! TD*
G04 #@! TO.C,R53*
X284099000Y-244094000D03*
D10*
X276479000Y-244094000D03*
G04 #@! TD*
D11*
G04 #@! TO.C,R54*
X285369000Y-230124000D03*
D10*
X285369000Y-219964000D03*
G04 #@! TD*
D11*
G04 #@! TO.C,R55*
X290449000Y-230124000D03*
D10*
X290449000Y-219964000D03*
G04 #@! TD*
G04 #@! TO.C,R56*
X280289000Y-230124000D03*
D11*
X280289000Y-219964000D03*
G04 #@! TD*
D10*
G04 #@! TO.C,R57*
X250126500Y-193357500D03*
D11*
X257746500Y-193357500D03*
G04 #@! TD*
G04 #@! TO.C,R58*
X259016500Y-179387500D03*
D10*
X259016500Y-169227500D03*
G04 #@! TD*
G04 #@! TO.C,R59*
X264096500Y-169227500D03*
D11*
X264096500Y-179387500D03*
G04 #@! TD*
G04 #@! TO.C,R60*
X253936500Y-169227500D03*
D10*
X253936500Y-179387500D03*
G04 #@! TD*
D11*
G04 #@! TO.C,R61*
X283654500Y-216154000D03*
D10*
X276034500Y-216154000D03*
G04 #@! TD*
G04 #@! TO.C,R62*
X284924500Y-192024000D03*
D11*
X284924500Y-202184000D03*
G04 #@! TD*
G04 #@! TO.C,R63*
X290004500Y-202184000D03*
D10*
X290004500Y-192024000D03*
G04 #@! TD*
G04 #@! TO.C,R64*
X279844500Y-202184000D03*
D11*
X279844500Y-192024000D03*
G04 #@! TD*
D10*
G04 #@! TO.C,R65*
X276542500Y-187960000D03*
D11*
X284162500Y-187960000D03*
G04 #@! TD*
G04 #@! TO.C,R66*
X285432500Y-172720000D03*
D10*
X285432500Y-162560000D03*
G04 #@! TD*
G04 #@! TO.C,R67*
X290512500Y-162560000D03*
D11*
X290512500Y-172720000D03*
G04 #@! TD*
G04 #@! TO.C,R68*
X280352500Y-162560000D03*
D10*
X280352500Y-172720000D03*
G04 #@! TD*
G04 #@! TO.C,R69*
X273685000Y-158178500D03*
D11*
X281305000Y-158178500D03*
G04 #@! TD*
D10*
G04 #@! TO.C,R70*
X282575000Y-134048500D03*
D11*
X282575000Y-144208500D03*
G04 #@! TD*
G04 #@! TO.C,R71*
X287655000Y-144208500D03*
D10*
X287655000Y-134048500D03*
G04 #@! TD*
G04 #@! TO.C,R72*
X277495000Y-144208500D03*
D11*
X277495000Y-134048500D03*
G04 #@! TD*
G04 #@! TO.C,R73*
X302768000Y-402844000D03*
D10*
X295148000Y-402844000D03*
G04 #@! TD*
D11*
G04 #@! TO.C,R74*
X302768000Y-387604000D03*
D10*
X302768000Y-379984000D03*
G04 #@! TD*
G04 #@! TO.C,R75*
X291338000Y-393954000D03*
D11*
X291338000Y-404114000D03*
G04 #@! TD*
G04 #@! TO.C,R76*
X291338000Y-381254000D03*
D10*
X291338000Y-391414000D03*
G04 #@! TD*
G04 #@! TO.C,R77*
X293814500Y-431482500D03*
D11*
X301434500Y-431482500D03*
G04 #@! TD*
D10*
G04 #@! TO.C,R78*
X301434500Y-408622500D03*
D11*
X301434500Y-416242500D03*
G04 #@! TD*
G04 #@! TO.C,R79*
X290004500Y-432752500D03*
D10*
X290004500Y-422592500D03*
G04 #@! TD*
G04 #@! TO.C,R80*
X290004500Y-420052500D03*
D11*
X290004500Y-409892500D03*
G04 #@! TD*
G04 #@! TO.C,R81*
X146621500Y-340931500D03*
D10*
X139001500Y-340931500D03*
G04 #@! TD*
G04 #@! TO.C,R82*
X146621500Y-318071500D03*
D11*
X146621500Y-325691500D03*
G04 #@! TD*
D10*
G04 #@! TO.C,R83*
X135191500Y-332041500D03*
D11*
X135191500Y-342201500D03*
G04 #@! TD*
G04 #@! TO.C,R84*
X135191500Y-319341500D03*
D10*
X135191500Y-329501500D03*
G04 #@! TD*
D11*
G04 #@! TO.C,R85*
X144145000Y-372618000D03*
D10*
X136525000Y-372618000D03*
G04 #@! TD*
D11*
G04 #@! TO.C,R86*
X144145000Y-356108000D03*
D10*
X144145000Y-348488000D03*
G04 #@! TD*
D11*
G04 #@! TO.C,R87*
X132715000Y-351028000D03*
D10*
X132715000Y-361188000D03*
G04 #@! TD*
G04 #@! TO.C,R88*
X132715000Y-363728000D03*
D11*
X132715000Y-373888000D03*
G04 #@! TD*
D10*
G04 #@! TO.C,R89*
X136715500Y-401510500D03*
D11*
X144335500Y-401510500D03*
G04 #@! TD*
D10*
G04 #@! TO.C,R90*
X144335500Y-378650500D03*
D11*
X144335500Y-386270500D03*
G04 #@! TD*
D10*
G04 #@! TO.C,R91*
X132905500Y-390080500D03*
D11*
X132905500Y-379920500D03*
G04 #@! TD*
G04 #@! TO.C,R92*
X132905500Y-402780500D03*
D10*
X132905500Y-392620500D03*
G04 #@! TD*
G04 #@! TO.C,R93*
X136652000Y-430276000D03*
D11*
X144272000Y-430276000D03*
G04 #@! TD*
D10*
G04 #@! TO.C,R94*
X144272000Y-407416000D03*
D11*
X144272000Y-415036000D03*
G04 #@! TD*
G04 #@! TO.C,R95*
X131572000Y-409956000D03*
D10*
X131572000Y-420116000D03*
G04 #@! TD*
G04 #@! TO.C,R96*
X131572000Y-422656000D03*
D11*
X131572000Y-432816000D03*
G04 #@! TD*
G04 #@! TO.C,R97*
X180086000Y-287464500D03*
D10*
X172466000Y-287464500D03*
G04 #@! TD*
G04 #@! TO.C,R98*
X180086000Y-263334500D03*
D11*
X180086000Y-270954500D03*
G04 #@! TD*
D10*
G04 #@! TO.C,R99*
X168656000Y-276034500D03*
D11*
X168656000Y-265874500D03*
G04 #@! TD*
G04 #@! TO.C,R100*
X168656000Y-288734500D03*
D10*
X168656000Y-278574500D03*
G04 #@! TD*
G04 #@! TO.C,R101*
X172656500Y-315849000D03*
D11*
X180276500Y-315849000D03*
G04 #@! TD*
G04 #@! TO.C,R102*
X180276500Y-300609000D03*
D10*
X180276500Y-292989000D03*
G04 #@! TD*
D11*
G04 #@! TO.C,R103*
X168846500Y-318389000D03*
D10*
X168846500Y-308229000D03*
G04 #@! TD*
G04 #@! TO.C,R104*
X168846500Y-305689000D03*
D11*
X168846500Y-295529000D03*
G04 #@! TD*
D10*
G04 #@! TO.C,R105*
X172466000Y-346011500D03*
D11*
X180086000Y-346011500D03*
G04 #@! TD*
D10*
G04 #@! TO.C,R106*
X180086000Y-321881500D03*
D11*
X180086000Y-329501500D03*
G04 #@! TD*
D10*
G04 #@! TO.C,R107*
X168656000Y-334581500D03*
D11*
X168656000Y-324421500D03*
G04 #@! TD*
G04 #@! TO.C,R108*
X168656000Y-347281500D03*
D10*
X168656000Y-337121500D03*
G04 #@! TD*
G04 #@! TO.C,R109*
X171513500Y-374396000D03*
D11*
X179133500Y-374396000D03*
G04 #@! TD*
G04 #@! TO.C,R110*
X179133500Y-359156000D03*
D10*
X179133500Y-351536000D03*
G04 #@! TD*
G04 #@! TO.C,R111*
X167703500Y-366776000D03*
D11*
X167703500Y-376936000D03*
G04 #@! TD*
G04 #@! TO.C,R112*
X167703500Y-354076000D03*
D10*
X167703500Y-364236000D03*
G04 #@! TD*
D11*
G04 #@! TO.C,R113*
X178943000Y-401637500D03*
D10*
X171323000Y-401637500D03*
G04 #@! TD*
G04 #@! TO.C,R114*
X178943000Y-380047500D03*
D11*
X178943000Y-387667500D03*
G04 #@! TD*
G04 #@! TO.C,R115*
X167513000Y-381317500D03*
D10*
X167513000Y-391477500D03*
G04 #@! TD*
D11*
G04 #@! TO.C,R116*
X167513000Y-404177500D03*
D10*
X167513000Y-394017500D03*
G04 #@! TD*
D11*
G04 #@! TO.C,R117*
X274510500Y-297307000D03*
D10*
X266890500Y-297307000D03*
G04 #@! TD*
D11*
G04 #@! TO.C,R118*
X274510500Y-282067000D03*
D10*
X274510500Y-274447000D03*
G04 #@! TD*
D11*
G04 #@! TO.C,R119*
X261810500Y-298577000D03*
D10*
X261810500Y-288417000D03*
G04 #@! TD*
G04 #@! TO.C,R120*
X261810500Y-285877000D03*
D11*
X261810500Y-275717000D03*
G04 #@! TD*
D10*
G04 #@! TO.C,R121*
X266001500Y-323215000D03*
D11*
X273621500Y-323215000D03*
G04 #@! TD*
D10*
G04 #@! TO.C,R122*
X273621500Y-300355000D03*
D11*
X273621500Y-307975000D03*
G04 #@! TD*
G04 #@! TO.C,R123*
X260921500Y-324485000D03*
D10*
X260921500Y-314325000D03*
G04 #@! TD*
G04 #@! TO.C,R124*
X260921500Y-311785000D03*
D11*
X260921500Y-301625000D03*
G04 #@! TD*
D10*
G04 #@! TO.C,R125*
X264604500Y-350520000D03*
D11*
X272224500Y-350520000D03*
G04 #@! TD*
D10*
G04 #@! TO.C,R126*
X272224500Y-327660000D03*
D11*
X272224500Y-335280000D03*
G04 #@! TD*
D10*
G04 #@! TO.C,R127*
X260794500Y-339090000D03*
D11*
X260794500Y-328930000D03*
G04 #@! TD*
G04 #@! TO.C,R128*
X260794500Y-351790000D03*
D10*
X260794500Y-341630000D03*
G04 #@! TD*
G04 #@! TO.C,R129*
X264033000Y-379793500D03*
D11*
X271653000Y-379793500D03*
G04 #@! TD*
G04 #@! TO.C,R130*
X271653000Y-363283500D03*
D10*
X271653000Y-355663500D03*
G04 #@! TD*
D11*
G04 #@! TO.C,R131*
X260223000Y-356933500D03*
D10*
X260223000Y-367093500D03*
G04 #@! TD*
G04 #@! TO.C,R132*
X260223000Y-369633500D03*
D11*
X260223000Y-379793500D03*
G04 #@! TD*
D10*
G04 #@! TO.C,R133*
X263842500Y-407289000D03*
D11*
X271462500Y-407289000D03*
G04 #@! TD*
G04 #@! TO.C,R134*
X271462500Y-392049000D03*
D10*
X271462500Y-384429000D03*
G04 #@! TD*
G04 #@! TO.C,R135*
X260032500Y-398399000D03*
D11*
X260032500Y-408559000D03*
G04 #@! TD*
D10*
G04 #@! TO.C,R136*
X260032500Y-395859000D03*
D11*
X260032500Y-385699000D03*
G04 #@! TD*
D21*
G04 #@! TO.C,U2*
X146494500Y-110934500D03*
D22*
X143954500Y-118554500D03*
X143954500Y-110934500D03*
X146494500Y-118554500D03*
G04 #@! TD*
D23*
G04 #@! TO.C,U3*
X303149000Y-365760000D03*
D24*
X295529000Y-363220000D03*
X303149000Y-363220000D03*
X295529000Y-365760000D03*
G04 #@! TD*
D21*
G04 #@! TO.C,U4*
X145224500Y-139446000D03*
D22*
X142684500Y-147066000D03*
X142684500Y-139446000D03*
X145224500Y-147066000D03*
G04 #@! TD*
G04 #@! TO.C,U5*
X145478500Y-175577500D03*
X142938500Y-167957500D03*
X142938500Y-175577500D03*
D21*
X145478500Y-167957500D03*
G04 #@! TD*
D22*
G04 #@! TO.C,U6*
X145669000Y-204660500D03*
X143129000Y-197040500D03*
X143129000Y-204660500D03*
D21*
X145669000Y-197040500D03*
G04 #@! TD*
G04 #@! TO.C,U7*
X174625000Y-142365500D03*
D22*
X172085000Y-149985500D03*
X172085000Y-142365500D03*
X174625000Y-149985500D03*
G04 #@! TD*
D21*
G04 #@! TO.C,U8*
X173863000Y-171513500D03*
D22*
X171323000Y-179133500D03*
X171323000Y-171513500D03*
X173863000Y-179133500D03*
G04 #@! TD*
D21*
G04 #@! TO.C,U9*
X173672500Y-200850500D03*
D22*
X171132500Y-208470500D03*
X171132500Y-200850500D03*
X173672500Y-208470500D03*
G04 #@! TD*
D21*
G04 #@! TO.C,U10*
X173609000Y-229870000D03*
D22*
X171069000Y-237490000D03*
X171069000Y-229870000D03*
X173609000Y-237490000D03*
G04 #@! TD*
D21*
G04 #@! TO.C,U11*
X202628500Y-169418000D03*
D22*
X200088500Y-177038000D03*
X200088500Y-169418000D03*
X202628500Y-177038000D03*
G04 #@! TD*
G04 #@! TO.C,U12*
X202184000Y-206057500D03*
X199644000Y-198437500D03*
X199644000Y-206057500D03*
D21*
X202184000Y-198437500D03*
G04 #@! TD*
D22*
G04 #@! TO.C,U13*
X201993500Y-235839000D03*
X199453500Y-228219000D03*
X199453500Y-235839000D03*
D21*
X201993500Y-228219000D03*
G04 #@! TD*
G04 #@! TO.C,U14*
X200152000Y-256921000D03*
D22*
X197612000Y-264541000D03*
X197612000Y-256921000D03*
X200152000Y-264541000D03*
G04 #@! TD*
D21*
G04 #@! TO.C,U15*
X287909000Y-244094000D03*
D22*
X290449000Y-236474000D03*
X290449000Y-244094000D03*
X287909000Y-236474000D03*
G04 #@! TD*
G04 #@! TO.C,U16*
X261556500Y-185737500D03*
X264096500Y-193357500D03*
X264096500Y-185737500D03*
D21*
X261556500Y-193357500D03*
G04 #@! TD*
D22*
G04 #@! TO.C,U17*
X287464500Y-208534000D03*
X290004500Y-216154000D03*
X290004500Y-208534000D03*
D21*
X287464500Y-216154000D03*
G04 #@! TD*
D22*
G04 #@! TO.C,U18*
X287972500Y-180340000D03*
X290512500Y-187960000D03*
X290512500Y-180340000D03*
D21*
X287972500Y-187960000D03*
G04 #@! TD*
D22*
G04 #@! TO.C,U19*
X285115000Y-150558500D03*
X287655000Y-158178500D03*
X287655000Y-150558500D03*
D21*
X285115000Y-158178500D03*
G04 #@! TD*
D23*
G04 #@! TO.C,U20*
X302768000Y-393954000D03*
D24*
X295148000Y-391414000D03*
X302768000Y-391414000D03*
X295148000Y-393954000D03*
G04 #@! TD*
D23*
G04 #@! TO.C,U21*
X301434500Y-422592500D03*
D24*
X293814500Y-420052500D03*
X301434500Y-420052500D03*
X293814500Y-422592500D03*
G04 #@! TD*
G04 #@! TO.C,U22*
X139001500Y-332041500D03*
X146621500Y-329501500D03*
X139001500Y-329501500D03*
D23*
X146621500Y-332041500D03*
G04 #@! TD*
D24*
G04 #@! TO.C,U23*
X136525000Y-363728000D03*
X144145000Y-361188000D03*
X136525000Y-361188000D03*
D23*
X144145000Y-363728000D03*
G04 #@! TD*
D24*
G04 #@! TO.C,U24*
X136715500Y-393890500D03*
X144335500Y-391350500D03*
X136715500Y-391350500D03*
D23*
X144335500Y-393890500D03*
G04 #@! TD*
D24*
G04 #@! TO.C,U25*
X136652000Y-422656000D03*
X144272000Y-420116000D03*
X136652000Y-420116000D03*
D23*
X144272000Y-422656000D03*
G04 #@! TD*
G04 #@! TO.C,U26*
X180086000Y-278574500D03*
D24*
X172466000Y-276034500D03*
X180086000Y-276034500D03*
X172466000Y-278574500D03*
G04 #@! TD*
D23*
G04 #@! TO.C,U27*
X180276500Y-308229000D03*
D24*
X172656500Y-305689000D03*
X180276500Y-305689000D03*
X172656500Y-308229000D03*
G04 #@! TD*
D23*
G04 #@! TO.C,U28*
X180086000Y-337121500D03*
D24*
X172466000Y-334581500D03*
X180086000Y-334581500D03*
X172466000Y-337121500D03*
G04 #@! TD*
G04 #@! TO.C,U29*
X171513500Y-366776000D03*
X179133500Y-364236000D03*
X171513500Y-364236000D03*
D23*
X179133500Y-366776000D03*
G04 #@! TD*
D24*
G04 #@! TO.C,U30*
X171323000Y-394017500D03*
X178943000Y-391477500D03*
X171323000Y-391477500D03*
D23*
X178943000Y-394017500D03*
G04 #@! TD*
D24*
G04 #@! TO.C,U31*
X266890500Y-288417000D03*
X274510500Y-285877000D03*
X266890500Y-285877000D03*
D23*
X274510500Y-288417000D03*
G04 #@! TD*
G04 #@! TO.C,U32*
X273621500Y-314325000D03*
D24*
X266001500Y-311785000D03*
X273621500Y-311785000D03*
X266001500Y-314325000D03*
G04 #@! TD*
G04 #@! TO.C,U33*
X264604500Y-341630000D03*
X272224500Y-339090000D03*
X264604500Y-339090000D03*
D23*
X272224500Y-341630000D03*
G04 #@! TD*
G04 #@! TO.C,U34*
X271653000Y-369633500D03*
D24*
X264033000Y-367093500D03*
X271653000Y-367093500D03*
X264033000Y-369633500D03*
G04 #@! TD*
G04 #@! TO.C,U35*
X263842500Y-398399000D03*
X271462500Y-395859000D03*
X263842500Y-395859000D03*
D23*
X271462500Y-398399000D03*
G04 #@! TD*
D20*
G04 #@! TO.C,Q2*
X150304500Y-119824500D03*
D19*
X152844500Y-119824500D03*
X151574500Y-119824500D03*
G04 #@! TD*
D18*
G04 #@! TO.C,Q3*
X285369000Y-360680000D03*
X285369000Y-363220000D03*
D16*
X285369000Y-365760000D03*
G04 #@! TD*
D12*
G04 #@! TO.C,MH1*
X114300000Y-114300000D03*
G04 #@! TD*
G04 #@! TO.C,MH3*
X342900000Y-114300000D03*
G04 #@! TD*
G04 #@! TO.C,MH4*
X342900000Y-431800000D03*
G04 #@! TD*
M02*
