G04 #@! TF.GenerationSoftware,KiCad,Pcbnew,(5.0.0-3-g5ebb6b6)*
G04 #@! TF.CreationDate,2019-09-30T16:34:02-06:00*
G04 #@! TF.ProjectId,VasulkaTranslocationPCB,566173756C6B615472616E736C6F6361,rev?*
G04 #@! TF.SameCoordinates,Original*
G04 #@! TF.FileFunction,Legend,Bot*
G04 #@! TF.FilePolarity,Positive*
%FSLAX46Y46*%
G04 Gerber Fmt 4.6, Leading zero omitted, Abs format (unit mm)*
G04 Created by KiCad (PCBNEW (5.0.0-3-g5ebb6b6)) date Monday, September 30, 2019 at 04:34:02 PM*
%MOMM*%
%LPD*%
G01*
G04 APERTURE LIST*
%ADD10C,1.000000*%
G04 APERTURE END LIST*
D10*
X118416904Y-128353571D02*
X113416904Y-128353571D01*
X118416904Y-131210714D02*
X115559761Y-129067857D01*
X113416904Y-131210714D02*
X116274047Y-128353571D01*
X117940714Y-133353571D02*
X118178809Y-133591666D01*
X118416904Y-133353571D01*
X118178809Y-133115476D01*
X117940714Y-133353571D01*
X118416904Y-133353571D01*
X118416904Y-139544047D02*
X113416904Y-139544047D01*
X113416904Y-140734523D01*
X113655000Y-141448809D01*
X114131190Y-141925000D01*
X114607380Y-142163095D01*
X115559761Y-142401190D01*
X116274047Y-142401190D01*
X117226428Y-142163095D01*
X117702619Y-141925000D01*
X118178809Y-141448809D01*
X118416904Y-140734523D01*
X118416904Y-139544047D01*
X116988333Y-144305952D02*
X116988333Y-146686904D01*
X118416904Y-143829761D02*
X113416904Y-145496428D01*
X118416904Y-147163095D01*
X118416904Y-148829761D02*
X113416904Y-148829761D01*
X118416904Y-151686904D01*
X113416904Y-151686904D01*
X116988333Y-153829761D02*
X116988333Y-156210714D01*
X118416904Y-153353571D02*
X113416904Y-155020238D01*
X118416904Y-156686904D01*
X115797857Y-158353571D02*
X115797857Y-160020238D01*
X118416904Y-160734523D02*
X118416904Y-158353571D01*
X113416904Y-158353571D01*
X113416904Y-160734523D01*
X118416904Y-166686904D02*
X113416904Y-166686904D01*
X118416904Y-169544047D02*
X115559761Y-167401190D01*
X113416904Y-169544047D02*
X116274047Y-166686904D01*
X115797857Y-171686904D02*
X115797857Y-173353571D01*
X118416904Y-174067857D02*
X118416904Y-171686904D01*
X113416904Y-171686904D01*
X113416904Y-174067857D01*
X118416904Y-176210714D02*
X113416904Y-176210714D01*
X118416904Y-180972619D02*
X118416904Y-178591666D01*
X113416904Y-178591666D01*
X118416904Y-182639285D02*
X113416904Y-182639285D01*
X116988333Y-184305952D01*
X113416904Y-185972619D01*
X118416904Y-185972619D01*
X116988333Y-188115476D02*
X116988333Y-190496428D01*
X118416904Y-187639285D02*
X113416904Y-189305952D01*
X118416904Y-190972619D01*
X118416904Y-192639285D02*
X113416904Y-192639285D01*
X118416904Y-195496428D01*
X113416904Y-195496428D01*
X121916904Y-133234523D02*
X121916904Y-136091666D01*
X126916904Y-134663095D02*
X121916904Y-134663095D01*
X126916904Y-140615476D02*
X124535952Y-138948809D01*
X126916904Y-137758333D02*
X121916904Y-137758333D01*
X121916904Y-139663095D01*
X122155000Y-140139285D01*
X122393095Y-140377380D01*
X122869285Y-140615476D01*
X123583571Y-140615476D01*
X124059761Y-140377380D01*
X124297857Y-140139285D01*
X124535952Y-139663095D01*
X124535952Y-137758333D01*
X125488333Y-142520238D02*
X125488333Y-144901190D01*
X126916904Y-142044047D02*
X121916904Y-143710714D01*
X126916904Y-145377380D01*
X126916904Y-147044047D02*
X121916904Y-147044047D01*
X126916904Y-149901190D01*
X121916904Y-149901190D01*
X126678809Y-152044047D02*
X126916904Y-152758333D01*
X126916904Y-153948809D01*
X126678809Y-154425000D01*
X126440714Y-154663095D01*
X125964523Y-154901190D01*
X125488333Y-154901190D01*
X125012142Y-154663095D01*
X124774047Y-154425000D01*
X124535952Y-153948809D01*
X124297857Y-152996428D01*
X124059761Y-152520238D01*
X123821666Y-152282142D01*
X123345476Y-152044047D01*
X122869285Y-152044047D01*
X122393095Y-152282142D01*
X122155000Y-152520238D01*
X121916904Y-152996428D01*
X121916904Y-154186904D01*
X122155000Y-154901190D01*
X126916904Y-159425000D02*
X126916904Y-157044047D01*
X121916904Y-157044047D01*
X121916904Y-162044047D02*
X121916904Y-162996428D01*
X122155000Y-163472619D01*
X122631190Y-163948809D01*
X123583571Y-164186904D01*
X125250238Y-164186904D01*
X126202619Y-163948809D01*
X126678809Y-163472619D01*
X126916904Y-162996428D01*
X126916904Y-162044047D01*
X126678809Y-161567857D01*
X126202619Y-161091666D01*
X125250238Y-160853571D01*
X123583571Y-160853571D01*
X122631190Y-161091666D01*
X122155000Y-161567857D01*
X121916904Y-162044047D01*
X126440714Y-169186904D02*
X126678809Y-168948809D01*
X126916904Y-168234523D01*
X126916904Y-167758333D01*
X126678809Y-167044047D01*
X126202619Y-166567857D01*
X125726428Y-166329761D01*
X124774047Y-166091666D01*
X124059761Y-166091666D01*
X123107380Y-166329761D01*
X122631190Y-166567857D01*
X122155000Y-167044047D01*
X121916904Y-167758333D01*
X121916904Y-168234523D01*
X122155000Y-168948809D01*
X122393095Y-169186904D01*
X125488333Y-171091666D02*
X125488333Y-173472619D01*
X126916904Y-170615476D02*
X121916904Y-172282142D01*
X126916904Y-173948809D01*
X121916904Y-174901190D02*
X121916904Y-177758333D01*
X126916904Y-176329761D02*
X121916904Y-176329761D01*
X126916904Y-179425000D02*
X121916904Y-179425000D01*
X121916904Y-182758333D02*
X121916904Y-183710714D01*
X122155000Y-184186904D01*
X122631190Y-184663095D01*
X123583571Y-184901190D01*
X125250238Y-184901190D01*
X126202619Y-184663095D01*
X126678809Y-184186904D01*
X126916904Y-183710714D01*
X126916904Y-182758333D01*
X126678809Y-182282142D01*
X126202619Y-181805952D01*
X125250238Y-181567857D01*
X123583571Y-181567857D01*
X122631190Y-181805952D01*
X122155000Y-182282142D01*
X121916904Y-182758333D01*
X126916904Y-187044047D02*
X121916904Y-187044047D01*
X126916904Y-189901190D01*
X121916904Y-189901190D01*
X130416904Y-144544047D02*
X130416904Y-145020238D01*
X130655000Y-145496428D01*
X130893095Y-145734523D01*
X131369285Y-145972619D01*
X132321666Y-146210714D01*
X133512142Y-146210714D01*
X134464523Y-145972619D01*
X134940714Y-145734523D01*
X135178809Y-145496428D01*
X135416904Y-145020238D01*
X135416904Y-144544047D01*
X135178809Y-144067857D01*
X134940714Y-143829761D01*
X134464523Y-143591666D01*
X133512142Y-143353571D01*
X132321666Y-143353571D01*
X131369285Y-143591666D01*
X130893095Y-143829761D01*
X130655000Y-144067857D01*
X130416904Y-144544047D01*
X135416904Y-148591666D02*
X135416904Y-149544047D01*
X135178809Y-150020238D01*
X134940714Y-150258333D01*
X134226428Y-150734523D01*
X133274047Y-150972619D01*
X131369285Y-150972619D01*
X130893095Y-150734523D01*
X130655000Y-150496428D01*
X130416904Y-150020238D01*
X130416904Y-149067857D01*
X130655000Y-148591666D01*
X130893095Y-148353571D01*
X131369285Y-148115476D01*
X132559761Y-148115476D01*
X133035952Y-148353571D01*
X133274047Y-148591666D01*
X133512142Y-149067857D01*
X133512142Y-150020238D01*
X133274047Y-150496428D01*
X133035952Y-150734523D01*
X132559761Y-150972619D01*
X130178809Y-156686904D02*
X136607380Y-152401190D01*
X130893095Y-158115476D02*
X130655000Y-158353571D01*
X130416904Y-158829761D01*
X130416904Y-160020238D01*
X130655000Y-160496428D01*
X130893095Y-160734523D01*
X131369285Y-160972619D01*
X131845476Y-160972619D01*
X132559761Y-160734523D01*
X135416904Y-157877380D01*
X135416904Y-160972619D01*
X135416904Y-163353571D02*
X135416904Y-164305952D01*
X135178809Y-164782142D01*
X134940714Y-165020238D01*
X134226428Y-165496428D01*
X133274047Y-165734523D01*
X131369285Y-165734523D01*
X130893095Y-165496428D01*
X130655000Y-165258333D01*
X130416904Y-164782142D01*
X130416904Y-163829761D01*
X130655000Y-163353571D01*
X130893095Y-163115476D01*
X131369285Y-162877380D01*
X132559761Y-162877380D01*
X133035952Y-163115476D01*
X133274047Y-163353571D01*
X133512142Y-163829761D01*
X133512142Y-164782142D01*
X133274047Y-165258333D01*
X133035952Y-165496428D01*
X132559761Y-165734523D01*
X130178809Y-171448809D02*
X136607380Y-167163095D01*
X135416904Y-175734523D02*
X135416904Y-172877380D01*
X135416904Y-174305952D02*
X130416904Y-174305952D01*
X131131190Y-173829761D01*
X131607380Y-173353571D01*
X131845476Y-172877380D01*
X135416904Y-178115476D02*
X135416904Y-179067857D01*
X135178809Y-179544047D01*
X134940714Y-179782142D01*
X134226428Y-180258333D01*
X133274047Y-180496428D01*
X131369285Y-180496428D01*
X130893095Y-180258333D01*
X130655000Y-180020238D01*
X130416904Y-179544047D01*
X130416904Y-178591666D01*
X130655000Y-178115476D01*
X130893095Y-177877380D01*
X131369285Y-177639285D01*
X132559761Y-177639285D01*
X133035952Y-177877380D01*
X133274047Y-178115476D01*
X133512142Y-178591666D01*
X133512142Y-179544047D01*
X133274047Y-180020238D01*
X133035952Y-180258333D01*
X132559761Y-180496428D01*
X138916904Y-154305952D02*
X143916904Y-155972619D01*
X138916904Y-157639285D01*
X143916904Y-161925000D02*
X143916904Y-159067857D01*
X143916904Y-160496428D02*
X138916904Y-160496428D01*
X139631190Y-160020238D01*
X140107380Y-159544047D01*
X140345476Y-159067857D01*
X143440714Y-164067857D02*
X143678809Y-164305952D01*
X143916904Y-164067857D01*
X143678809Y-163829761D01*
X143440714Y-164067857D01*
X143916904Y-164067857D01*
X138916904Y-167401190D02*
X138916904Y-167877380D01*
X139155000Y-168353571D01*
X139393095Y-168591666D01*
X139869285Y-168829761D01*
X140821666Y-169067857D01*
X142012142Y-169067857D01*
X142964523Y-168829761D01*
X143440714Y-168591666D01*
X143678809Y-168353571D01*
X143916904Y-167877380D01*
X143916904Y-167401190D01*
X143678809Y-166925000D01*
X143440714Y-166686904D01*
X142964523Y-166448809D01*
X142012142Y-166210714D01*
X140821666Y-166210714D01*
X139869285Y-166448809D01*
X139393095Y-166686904D01*
X139155000Y-166925000D01*
X138916904Y-167401190D01*
M02*
